<?xml version="1.0" encoding="utf-8"?>
<!-- Generator: Adobe Illustrator 27.5.0, SVG Export Plug-In . SVG Version: 6.00 Build 0)  -->
<svg version="1.1" xmlns="http://www.w3.org/2000/svg" xmlns:xlink="http://www.w3.org/1999/xlink" x="0px" y="0px"
	 viewBox="0 0 750 500" style="enable-background:new 0 0 750 500;" xml:space="preserve">
<g id="BACKGROUND">
	<rect x="125" style="fill-rule:evenodd;clip-rule:evenodd;fill:#FFFFFF;" width="500" height="500"/>
</g>
<g id="OBJECTS">
	<g>
		<path style="fill-rule:evenodd;clip-rule:evenodd;fill:#A4CBE7;" d="M85.469,314.211c19.071,0,34.674,15.605,34.674,34.676l0,0
			l0,0c0,34.795,28.47,63.266,63.265,63.266h3.494l0,0h369.827h73.849c45.202,0,82.186-36.982,82.186-82.186l0,0
			c0-45.203-36.985-82.186-82.186-82.186h-2.161c-9.072,0-16.494-7.422-16.494-16.493l0,0c0-9.072,7.422-16.494,16.494-16.494h9.071
			c22.053,0,40.096-18.042,40.096-40.093l0,0c0-22.027-18.002-40.053-40.02-40.094c-0.023,0-39.096,0-39.121,0
			c-19.07,0-34.675-15.604-34.675-34.675l0,0l0,0c0-34.796-28.469-63.265-63.266-63.265c-61.74,0-261.555,0-323.297,0
			c-45.203,0-82.186,36.985-82.186,82.186l0,0c0,45.201,36.983,82.186,82.186,82.186l0,0c9.072,0,16.494,7.424,16.494,16.494l0,0
			c0,9.069-7.422,16.493-16.494,16.493H85.469C33.007,234.025,33.007,314.211,85.469,314.211z"/>
		<path style="fill-rule:evenodd;clip-rule:evenodd;fill:#84B3D2;" d="M109.676,324.123c6.448,6.307,10.468,15.088,10.468,24.764
			l0,0l0,0c0,34.793,28.469,63.266,63.264,63.266h3.494l0,0h369.827h73.849c6.402,0,12.64-0.742,18.632-2.146v-96.434h-5.938
			v-39.574c0-1.535-0.575-2.855-1.717-3.941c-1.142-1.084-2.531-1.631-4.142-1.629l-26.625,0.051l-0.271-110.244
			c-0.005-3.054-2.606-5.545-5.815-5.562l-26.039-0.142c-1.617-0.008-3.013,0.535-4.157,1.621c-1.148,1.085-1.724,2.411-1.724,3.949
			v21.63h-29.308V147.5l-0.009,0.001v-9.357c-0.003-3.053-2.606-5.547-5.813-5.562l-13.48-0.142
			c-1.615-0.01-3.012,0.535-4.156,1.619c-1.146,1.087-1.724,2.411-1.724,3.951v89.779h-20.343v-24.622h2.872
			c1.283,0,2.335-1.001,2.335-2.222v-32.752c0-1.221-1.052-2.224-2.335-2.224h-2.872l0,0c-1.283,0-2.335,1.001-2.335,2.224v0.245
			v8.315h-3.978v-19.751c0-0.689-0.262-1.283-0.777-1.766c-0.517-0.485-1.143-0.723-1.869-0.714l-9.001,0.133
			c-1.409,0.02-2.546,1.111-2.563,2.455l-0.064,5.982l-30.211-0.003l-0.233-8.903c-0.035-1.344-1.191-2.418-2.604-2.418
			l-32.116-0.001c-1.434,0-2.604,1.114-2.604,2.48v20.974h-13.051v-9.632c0-0.686-0.257-1.276-0.769-1.757
			c-0.509-0.486-1.132-0.729-1.851-0.723l-11.598,0.063c-1.429,0.006-2.587,1.118-2.59,2.479l-0.12,51.61l-11.858-0.023
			c-0.718-0.002-1.335,0.243-1.844,0.726c-0.508,0.483-0.765,1.07-0.765,1.756v17.624h-9.492v-4.511c0-1.364-1.17-2.479-2.605-2.479
			h-5.626c-1.276,0-2.345,0.881-2.565,2.038v-9.511l-0.065-75.68c0-1.083-0.694-2.001-1.77-2.349l-2.823-0.91
			c-0.167-0.078-0.359-0.167-0.525-0.255c-0.098-0.638-0.075-1.854-0.081-2.327c-0.031-2.614-0.073-5.212-0.183-7.828
			c-0.056-1.302-1.151-2.34-2.519-2.381l-4.328-0.131l-0.238-11.038c-0.005-1.322-1.099-2.406-2.487-2.465l-4.512-0.194
			l-0.078-18.583c-0.008-1.361-1.168-2.465-2.593-2.472c-0.682-0.003-1.353,0.031-2.031,0.064c-0.04,0.001-0.086,0.003-0.135,0.008
			c-0.155-1.244-0.086-3.615-0.074-4.324c0.095-5.015,0.296-10.033,0.4-15.05c0.013-0.692-0.235-1.294-0.745-1.787
			c-0.507-0.495-1.133-0.743-1.859-0.743h-38.534c-1.428,0-2.597,1.104-2.605,2.465l-0.118,19.304
			c-1.002,0.002-1.675,0.218-3.46,1.373c-0.736,0.474-1.142,1.202-1.143,2.05l-0.022,17.889l-4.736,0.169
			c-1.399,0.049-2.505,1.146-2.505,2.479l-0.003,11l-4.686,0.15c-1.393,0.042-2.502,1.122-2.519,2.45l-0.125,10.127h-2.338
			c-1.432,0-2.604,1.111-2.605,2.479l-0.206,117.653l-19.338,0.021l-0.005-85.864c0-1.079,0.044-2.178,0.015-3.259
			c-0.029-1.135-0.236-2.178-1.199-2.96c-0.829-0.673-1.611-0.716-2.609-0.829c-0.162-0.019-0.324-0.042-0.48-0.069l0.031-9.921
			c0.005-1.349-1.13-2.456-2.544-2.489c-1.111-0.022-2.204,0.015-3.313,0.039c-0.216,0.003-0.655,0.019-0.989-0.003
			c-0.27-1.074-0.235-3.934-0.228-4.677c0.04-5.075,0.228-10.159,0.287-15.236c0.02-1.656,0.071-3.604-0.184-5.241
			c-0.204-1.302-0.714-2.44-2.023-3.053c-0.056-0.027-0.109-0.051-0.162-0.071c-0.083-0.177-0.16-0.397-0.206-0.53
			c-0.294-0.857-0.247-3.308-0.252-4.268c-0.01-1.42,0.01-2.903-0.143-4.313c-0.142-1.283-1.28-2.244-2.635-2.222l-19.213,0.306
			c-0.952,0.016-1.781,0.512-2.222,1.253c0.032-3.502,0.103-6.983-0.13-10.485c-0.086-1.304-1.211-2.317-2.58-2.325l-20.597-0.128
			c-1.434-0.01-2.609,1.094-2.621,2.458l-0.175,19.765c-0.118,0.024-0.237,0.049-0.363,0.078c-1.253,0.29-2.191,0.863-3.174,1.638
			c-0.609,0.483-0.934,1.128-0.944,1.884l-0.287,25.175l-4.155,0.348c-1.243,0.103-2.215,1.001-2.361,2.182l-1.232,9.977
			c-0.419,0.15-0.839,0.291-1.254,0.569c-1.21,0.816-1.562,2.066-1.79,3.38c-0.025,0.142-0.036,0.262-0.036,0.405l-0.018,21.965
			c7.52,2.285,15.484,3.519,23.724,3.519l0,0c9.072,0,16.494,7.424,16.494,16.494l0,0c0,9.069-7.422,16.493-16.494,16.493h-23.756
			l-0.022,25.678l-16.31-0.035l-0.022-19.424c-0.001-0.688-0.262-1.278-0.773-1.761c-0.513-0.483-1.136-0.723-1.857-0.716
			l-6.59,0.221c-1.418,0.012-2.568,1.111-2.578,2.463l-0.142,74.953l-12.905,0.129c-1.378,0.014-2.502,1.043-2.573,2.352V324.123z"
			/>
		<g>
			<g>
				<path style="fill-rule:evenodd;clip-rule:evenodd;fill:#FFFFFF;" d="M159.804,58.461h5.538c1.015,0,1.845,0.829,1.845,1.845
					v5.538c0,1.013-0.831,1.844-1.845,1.844h-5.538c-1.015,0-1.844-0.831-1.844-1.844v-5.538
					C157.96,59.29,158.79,58.461,159.804,58.461z"/>
				<path style="fill-rule:evenodd;clip-rule:evenodd;fill:#FFFFFF;" d="M178.72,58.461h5.536c1.015,0,1.845,0.829,1.845,1.845
					v5.538c0,1.013-0.831,1.844-1.845,1.844h-5.536c-1.017,0-1.846-0.831-1.846-1.844v-5.538
					C176.874,59.29,177.703,58.461,178.72,58.461z"/>
				<path style="fill-rule:evenodd;clip-rule:evenodd;fill:#84B3D2;" d="M197.633,58.461h5.536c1.015,0,1.846,0.829,1.846,1.845
					v5.538c0,1.013-0.831,1.844-1.846,1.844h-5.536c-1.015,0-1.846-0.831-1.846-1.844v-5.538
					C195.788,59.29,196.619,58.461,197.633,58.461z"/>
				<path style="fill-rule:evenodd;clip-rule:evenodd;fill:#FFFFFF;" d="M216.547,58.461h5.538c1.015,0,1.844,0.829,1.844,1.845
					v5.538c0,1.013-0.829,1.844-1.844,1.844h-5.538c-1.015,0-1.845-0.831-1.845-1.844v-5.538
					C214.702,59.29,215.532,58.461,216.547,58.461z"/>
			</g>
			<g>
				<path style="fill-rule:evenodd;clip-rule:evenodd;fill:#FFFFFF;" d="M583.306,372.328h5.538c1.016,0,1.846,0.83,1.846,1.846
					v5.539c0,1.012-0.83,1.844-1.846,1.844h-5.538c-1.015,0-1.844-0.832-1.844-1.844v-5.539
					C581.462,373.158,582.291,372.328,583.306,372.328z"/>
				<path style="fill-rule:evenodd;clip-rule:evenodd;fill:#FFFFFF;" d="M602.222,372.328h5.536c1.015,0,1.846,0.83,1.846,1.846
					v5.539c0,1.012-0.831,1.844-1.846,1.844h-5.536c-1.017,0-1.846-0.832-1.846-1.844v-5.539
					C600.376,373.158,601.205,372.328,602.222,372.328z"/>
				<path style="fill-rule:evenodd;clip-rule:evenodd;fill:#FFFFFF;" d="M621.136,372.328h5.536c1.015,0,1.846,0.83,1.846,1.846
					v5.539c0,1.012-0.831,1.844-1.846,1.844h-5.536c-1.016,0-1.846-0.832-1.846-1.844v-5.539
					C619.29,373.158,620.12,372.328,621.136,372.328z"/>
				<path style="fill-rule:evenodd;clip-rule:evenodd;fill:#FFFFFF;" d="M640.049,372.328h5.538c1.015,0,1.844,0.83,1.844,1.846
					v5.539c0,1.012-0.829,1.844-1.844,1.844h-5.538c-1.015,0-1.846-0.832-1.846-1.844v-5.539
					C638.203,373.158,639.034,372.328,640.049,372.328z"/>
			</g>
			<path style="fill-rule:evenodd;clip-rule:evenodd;fill:#FFFFFF;" d="M457.461,175.09h-19.236c-0.892,0-1.621-0.73-1.621-1.621
				l0,0c0-0.892,0.73-1.621,1.621-1.621h19.236c0.892,0,1.619,0.729,1.619,1.621l0,0C459.08,174.361,458.352,175.09,457.461,175.09z
				"/>
			<path style="fill-rule:evenodd;clip-rule:evenodd;fill:#FFFFFF;" d="M457.461,168.391h-11.672c-0.892,0-1.621-0.729-1.621-1.621
				l0,0c0-0.892,0.729-1.621,1.621-1.621h11.672c0.892,0,1.619,0.73,1.619,1.621l0,0
				C459.08,167.662,458.352,168.391,457.461,168.391z"/>
			<path style="fill-rule:evenodd;clip-rule:evenodd;fill:#FFFFFF;" d="M165.607,373.514h-19.235c-0.892,0-1.621-0.729-1.621-1.621
				l0,0c0-0.891,0.729-1.619,1.621-1.619h19.235c0.891,0,1.621,0.729,1.621,1.619l0,0
				C167.228,372.785,166.499,373.514,165.607,373.514z"/>
			<path style="fill-rule:evenodd;clip-rule:evenodd;fill:#FFFFFF;" d="M165.607,366.815h-11.67c-0.892,0-1.621-0.729-1.621-1.621
				l0,0c0-0.891,0.729-1.621,1.621-1.621h11.67c0.891,0,1.621,0.73,1.621,1.621l0,0
				C167.228,366.086,166.499,366.815,165.607,366.815z"/>
			<path style="fill-rule:evenodd;clip-rule:evenodd;fill:#FFFFFF;" d="M277.047,145.837h19.234c0.892,0,1.621,0.73,1.621,1.621l0,0
				c0,0.892-0.729,1.621-1.621,1.621h-19.234c-0.892,0-1.621-0.729-1.621-1.621l0,0
				C275.426,146.566,276.155,145.837,277.047,145.837z"/>
			<path style="fill-rule:evenodd;clip-rule:evenodd;fill:#FFFFFF;" d="M277.047,152.537h11.67c0.891,0,1.621,0.729,1.621,1.621l0,0
				c0,0.892-0.729,1.621-1.621,1.621h-11.67c-0.892,0-1.621-0.73-1.621-1.621l0,0C275.426,153.266,276.155,152.537,277.047,152.537z
				"/>
			<path style="fill-rule:evenodd;clip-rule:evenodd;fill:#84B3D2;" d="M460.926,64.4c0-0.54,0.439-0.977,0.978-0.977
				c0.54,0,0.979,0.438,0.979,0.977v4.402c0,0.541-0.439,0.979-0.979,0.979c-0.539,0-0.978-0.439-0.978-0.979V64.4L460.926,64.4z
				 M454.256,67.975c-0.383-0.382-0.383-1.003,0-1.385c0.382-0.381,1.002-0.381,1.383,0l3.114,3.114
				c0.381,0.381,0.381,1.001,0,1.383c-0.384,0.381-1.003,0.381-1.385,0L454.256,67.975L454.256,67.975z M452.064,75.218
				c-0.538,0-0.978-0.439-0.978-0.979c0-0.541,0.44-0.979,0.978-0.979h4.403c0.541,0,0.977,0.439,0.977,0.979
				c0,0.54-0.436,0.979-0.977,0.979H452.064L452.064,75.218z M455.639,81.888c-0.381,0.381-1.001,0.381-1.383,0
				c-0.383-0.382-0.383-1.003,0-1.385l3.112-3.112c0.382-0.383,1.001-0.383,1.385,0c0.381,0.382,0.381,1.002,0,1.383L455.639,81.888
				L455.639,81.888z M462.883,84.078c0,0.539-0.439,0.978-0.979,0.978c-0.539,0-0.978-0.439-0.978-0.978v-4.402
				c0-0.54,0.439-0.979,0.978-0.979c0.54,0,0.979,0.439,0.979,0.979V84.078L462.883,84.078z M469.552,80.503
				c0.383,0.382,0.383,1.003,0,1.385c-0.382,0.381-1.001,0.381-1.383,0l-3.113-3.114c-0.382-0.381-0.382-1.001,0-1.383
				c0.382-0.383,1.003-0.383,1.385,0L469.552,80.503L469.552,80.503z M471.741,73.26c0.541,0,0.98,0.439,0.98,0.979
				c0,0.54-0.439,0.979-0.98,0.979h-4.401c-0.54,0-0.977-0.439-0.977-0.979c0-0.541,0.438-0.979,0.977-0.979H471.741L471.741,73.26z
				 M468.169,66.59c0.382-0.381,1.001-0.381,1.383,0c0.383,0.382,0.383,1.003,0,1.385l-3.111,3.112
				c-0.382,0.381-1.003,0.381-1.385,0c-0.382-0.382-0.382-1.001,0-1.383L468.169,66.59z"/>
			<path style="fill-rule:evenodd;clip-rule:evenodd;fill:#FFFFFF;" d="M443.673,126.251v2.134h2.137c0.891,0,1.62,0.729,1.62,1.621
				l0,0c0,0.891-0.729,1.621-1.62,1.621h-2.137v2.134c0,0.892-0.728,1.621-1.619,1.621l0,0c-0.892,0-1.62-0.729-1.62-1.621v-2.134
				h-2.137c-0.891,0-1.62-0.729-1.62-1.621l0,0c0-0.892,0.729-1.621,1.62-1.621h2.137v-2.134c0-0.892,0.728-1.621,1.62-1.621l0,0
				C442.945,124.63,443.673,125.359,443.673,126.251z"/>
			<path style="fill-rule:evenodd;clip-rule:evenodd;fill:#84B3D2;" d="M122.172,121.697c0-0.54,0.439-0.979,0.979-0.979
				c0.54,0,0.978,0.439,0.978,0.979v4.4c0,0.541-0.438,0.979-0.978,0.979c-0.541,0-0.979-0.439-0.979-0.979V121.697L122.172,121.697
				z M115.503,125.27c-0.383-0.381-0.383-1.001,0-1.384c0.382-0.382,1.001-0.382,1.385,0l3.112,3.113
				c0.381,0.381,0.381,1.002,0,1.384c-0.382,0.382-1.001,0.382-1.385,0L115.503,125.27L115.503,125.27z M113.313,132.513
				c-0.541,0-0.978-0.439-0.978-0.979c0-0.54,0.438-0.978,0.978-0.978h4.401c0.541,0,0.979,0.437,0.979,0.978
				c0,0.54-0.439,0.979-0.979,0.979H113.313L113.313,132.513z M116.888,139.183c-0.383,0.382-1.003,0.382-1.385,0
				c-0.383-0.381-0.383-1.001,0-1.384l3.112-3.112c0.383-0.382,1.003-0.382,1.385,0c0.381,0.381,0.381,1.001,0,1.384
				L116.888,139.183L116.888,139.183z M124.129,141.373c0,0.54-0.438,0.979-0.978,0.979c-0.541,0-0.979-0.439-0.979-0.979v-4.402
				c0-0.54,0.439-0.979,0.979-0.979c0.54,0,0.978,0.439,0.978,0.979V141.373L124.129,141.373z M130.8,137.798
				c0.381,0.383,0.381,1.003,0,1.384c-0.381,0.382-1.003,0.382-1.384,0l-3.112-3.112c-0.383-0.383-0.383-1.003,0-1.384
				c0.381-0.382,1.001-0.382,1.383,0L130.8,137.798L130.8,137.798z M132.99,130.557c0.539,0,0.978,0.437,0.978,0.978
				c0,0.54-0.439,0.979-0.978,0.979h-4.402c-0.54,0-0.979-0.439-0.979-0.979c0-0.54,0.439-0.978,0.979-0.978H132.99L132.99,130.557z
				 M129.416,123.886c0.381-0.382,1.003-0.382,1.384,0c0.381,0.383,0.381,1.003,0,1.384l-3.113,3.113
				c-0.382,0.382-1.001,0.382-1.383,0c-0.383-0.383-0.383-1.003,0-1.384L129.416,123.886z"/>
			<path style="fill-rule:evenodd;clip-rule:evenodd;fill:#FFFFFF;" d="M90.645,267.402v2.133h2.134
				c0.891,0,1.621,0.729,1.621,1.621l0,0c0,0.892-0.729,1.619-1.621,1.619h-2.134v2.137c0,0.891-0.729,1.621-1.621,1.621l0,0
				c-0.892,0-1.621-0.73-1.621-1.621v-2.137h-2.136c-0.891,0-1.621-0.727-1.621-1.619l0,0c0-0.893,0.729-1.621,1.621-1.621h2.136
				v-2.133c0-0.895,0.729-1.621,1.621-1.621l0,0C89.915,265.781,90.645,266.508,90.645,267.402z"/>
			<path style="fill-rule:evenodd;clip-rule:evenodd;fill:#FFFFFF;" d="M152.887,87.157v2.136h2.134
				c0.892,0,1.621,0.728,1.621,1.619l0,0c0,0.892-0.73,1.621-1.621,1.621h-2.134v2.136c0,0.892-0.73,1.621-1.621,1.621l0,0
				c-0.892,0-1.621-0.729-1.621-1.621v-2.136h-2.136c-0.891,0-1.621-0.729-1.621-1.621l0,0c0-0.891,0.73-1.619,1.621-1.619h2.136
				v-2.136c0-0.892,0.729-1.619,1.621-1.619l0,0C152.157,85.538,152.887,86.266,152.887,87.157z"/>
			<path style="fill-rule:evenodd;clip-rule:evenodd;fill:#FFFFFF;" d="M347.393,48.256v2.134h2.136
				c0.892,0,1.621,0.729,1.621,1.621l0,0c0,0.892-0.729,1.621-1.621,1.621h-2.136v2.134c0,0.892-0.728,1.621-1.619,1.621l0,0
				c-0.892,0-1.621-0.729-1.621-1.621v-2.134h-2.136c-0.892,0-1.621-0.729-1.621-1.621l0,0c0-0.891,0.729-1.621,1.621-1.621h2.136
				v-2.134c0-0.892,0.73-1.621,1.621-1.621l0,0C346.665,46.635,347.393,47.364,347.393,48.256z"/>
			<path style="fill-rule:evenodd;clip-rule:evenodd;fill:#FFFFFF;" d="M672.411,283.799v2.135h2.134
				c0.892,0,1.621,0.73,1.621,1.621l0,0c0,0.893-0.73,1.621-1.621,1.621h-2.134v2.135c0,0.891-0.729,1.621-1.621,1.621l0,0
				c-0.892,0-1.621-0.73-1.621-1.621v-2.135h-2.134c-0.892,0-1.621-0.729-1.621-1.621l0,0c0-0.891,0.73-1.621,1.621-1.621h2.134
				v-2.135c0-0.891,0.729-1.619,1.621-1.619l0,0C671.682,282.18,672.411,282.908,672.411,283.799z"/>
			<path style="fill-rule:evenodd;clip-rule:evenodd;fill:#FFFFFF;" d="M569.971,193.03v2.134h2.135c0.892,0,1.62,0.73,1.62,1.621
				l0,0c0,0.891-0.729,1.621-1.62,1.621h-2.135v2.134c0,0.892-0.729,1.621-1.621,1.621l0,0c-0.891,0-1.62-0.73-1.62-1.621v-2.134
				h-2.135c-0.892,0-1.621-0.73-1.621-1.621l0,0c0-0.892,0.729-1.621,1.621-1.621h2.135v-2.134c0-0.891,0.729-1.621,1.62-1.621l0,0
				C569.241,191.409,569.971,192.139,569.971,193.03z"/>
			<path style="fill-rule:evenodd;clip-rule:evenodd;fill:#84B3D2;" d="M641.168,164.248c0-0.541,0.439-0.978,0.979-0.978
				c0.541,0,0.978,0.437,0.978,0.978v4.401c0,0.541-0.437,0.98-0.978,0.98c-0.54,0-0.979-0.439-0.979-0.98V164.248L641.168,164.248z
				 M634.499,167.822c-0.383-0.382-0.383-1.003,0-1.385c0.382-0.381,1.001-0.381,1.385,0l3.111,3.114
				c0.382,0.381,0.382,1.001,0,1.383c-0.383,0.381-1.003,0.381-1.384,0L634.499,167.822L634.499,167.822z M632.31,175.065
				c-0.541,0-0.978-0.439-0.978-0.979c0-0.541,0.437-0.98,0.978-0.98h4.401c0.54,0,0.978,0.439,0.978,0.98
				c0,0.54-0.438,0.979-0.978,0.979H632.31L632.31,175.065z M635.884,181.734c-0.384,0.382-1.003,0.382-1.385,0
				c-0.383-0.381-0.383-1.003,0-1.384l3.112-3.112c0.381-0.383,1.001-0.383,1.384,0c0.382,0.381,0.382,1.001,0,1.383
				L635.884,181.734L635.884,181.734z M643.125,183.922c0,0.541-0.437,0.98-0.978,0.98c-0.54,0-0.979-0.439-0.979-0.98v-4.4
				c0-0.54,0.439-0.979,0.979-0.979c0.541,0,0.978,0.439,0.978,0.979V183.922L643.125,183.922z M649.797,180.35
				c0.381,0.381,0.381,1.003,0,1.384c-0.382,0.382-1.004,0.382-1.385,0l-3.112-3.113c-0.383-0.382-0.383-1.001,0-1.383
				c0.382-0.383,1.001-0.383,1.383,0L649.797,180.35L649.797,180.35z M651.986,173.106c0.538,0,0.978,0.439,0.978,0.98
				c0,0.54-0.439,0.979-0.978,0.979h-4.403c-0.539,0-0.978-0.439-0.978-0.979c0-0.541,0.438-0.98,0.978-0.98H651.986
				L651.986,173.106z M648.412,166.437c0.381-0.381,1.003-0.381,1.385,0c0.381,0.382,0.381,1.003,0,1.385l-3.114,3.112
				c-0.382,0.381-1.001,0.381-1.383,0c-0.383-0.382-0.383-1.001,0-1.383L648.412,166.437z"/>
			<path style="fill-rule:evenodd;clip-rule:evenodd;fill:#84B3D2;" d="M678.373,342.139c0-0.543,0.438-0.98,0.978-0.98
				c0.54,0,0.979,0.438,0.979,0.98v4.4c0,0.539-0.44,0.979-0.979,0.979c-0.54,0-0.978-0.44-0.978-0.979V342.139L678.373,342.139z
				 M671.702,345.711c-0.382-0.381-0.382-1.002,0-1.385c0.382-0.381,1.001-0.381,1.385,0l3.111,3.113
				c0.382,0.383,0.382,1.002,0,1.383c-0.382,0.383-1.001,0.383-1.383,0L671.702,345.711L671.702,345.711z M669.512,352.955
				c-0.54,0-0.977-0.44-0.977-0.98c0-0.539,0.438-0.979,0.977-0.979h4.402c0.54,0,0.979,0.439,0.979,0.979
				c0,0.541-0.438,0.98-0.979,0.98H669.512L669.512,352.955z M673.087,359.623c-0.384,0.383-1.003,0.383-1.385,0
				c-0.382-0.381-0.382-1.002,0-1.385l3.113-3.111c0.382-0.383,1.001-0.383,1.383,0c0.382,0.383,0.382,1.002,0,1.385
				L673.087,359.623L673.087,359.623z M680.33,361.815c0,0.539-0.44,0.976-0.979,0.976c-0.54,0-0.978-0.438-0.978-0.976v-4.402
				c0-0.541,0.438-0.98,0.978-0.98c0.54,0,0.979,0.439,0.979,0.98V361.815L680.33,361.815z M686.999,358.238
				c0.382,0.383,0.382,1.004,0,1.385c-0.382,0.383-1.003,0.383-1.385,0l-3.111-3.111c-0.384-0.383-0.384-1.002,0-1.385
				c0.382-0.383,1.001-0.383,1.385,0L686.999,358.238L686.999,358.238z M689.19,350.996c0.54,0,0.977,0.439,0.977,0.979
				c0,0.541-0.438,0.98-0.977,0.98h-4.402c-0.54,0-0.98-0.44-0.98-0.98c0-0.539,0.44-0.979,0.98-0.979H689.19L689.19,350.996z
				 M685.614,344.326c0.382-0.381,1.003-0.381,1.385,0c0.382,0.383,0.382,1.004,0,1.385l-3.111,3.111
				c-0.384,0.383-1.003,0.383-1.385,0c-0.384-0.381-0.384-1,0-1.383L685.614,344.326z"/>
		</g>
		<g>
			<g>
				<path style="fill-rule:evenodd;clip-rule:evenodd;fill:#000618;" d="M571.729,142.033c-0.148-0.361,0.025-0.773,0.387-0.922
					c0.361-0.147,0.773,0.027,0.922,0.387c0.032,0.079,11.53,27.354-8.42,43.266c-0.304,0.243-0.75,0.192-0.993-0.112
					c-0.243-0.306-0.192-0.75,0.113-0.994C582.847,168.416,571.759,142.11,571.729,142.033z"/>
				<path style="fill-rule:evenodd;clip-rule:evenodd;fill:#000618;" d="M484.885,189.663c0.263-0.29,0.712-0.312,1.001-0.047
					c0.29,0.264,0.311,0.711,0.047,1c-0.101,0.111-35.266,38.224-17.816,67.083c0.203,0.336,0.097,0.772-0.237,0.973
					c-0.333,0.201-0.767,0.096-0.97-0.238C448.904,228.656,484.783,189.775,484.885,189.663z"/>
				<path style="fill-rule:evenodd;clip-rule:evenodd;fill:#E84A2B;" d="M549.149,230.687c0,0,11.383,2.024,18.079,6.965
					c6.7,4.942,26.903,57.977,28.221,60.174c0,0,0.385,1.207,0.165,2.307c0,0-15.703,6.342-24.865,20.066
					c0,0-3.738,0.574-5.276-2.938C563.936,313.746,549.149,230.687,549.149,230.687z"/>
				<path style="fill-rule:evenodd;clip-rule:evenodd;fill:#D43718;" d="M549.149,230.687c0,0,11.383,2.024,18.079,6.965
					c0.19,0.138,0.389,0.321,0.598,0.532c-0.364,1.771-0.61,4.333,0.203,6.663c1.43,4.082,17.86,40.921,19.188,44.394
					c0.798,2.088,3.669,2.734,5.826,2.918c1.297,3.176,2.167,5.268,2.406,5.668c0,0,0.385,1.207,0.165,2.307
					c0,0-15.702,6.342-24.865,20.066c0,0-3.738,0.574-5.276-2.938C563.936,313.746,549.149,230.687,549.149,230.687z"/>
				<path style="fill-rule:evenodd;clip-rule:evenodd;fill:#E84A2B;" d="M536.741,234.201l6.478-3.514c0,0,4.228,0,5.93,0
					s10.431,4.996,13.064,8.29c2.636,3.294,15.814,30.744,16.253,38.65c0.44,7.906-5.052,22.842-7.466,35.357
					c-2.416,12.518-4.832,27.232-4.832,27.232s-0.657,4.502-2.635,5.272c-1.975,0.766-10.979,3.072-19.325,3.402
					c-8.345,0.33-54.573-1.756-56.658-2.414c-2.086-0.66-0.986-1.1-1.755-7.137c-0.77-6.041-3.405-29.209-4.283-32.723
					s-4.267-17.645-4.267-17.645s5.035-38.573-3.639-55.486c5.325-4.05,24.715-2.548,32.168-2.689L536.741,234.201z"/>
				<path style="fill-rule:evenodd;clip-rule:evenodd;fill:#D43718;" d="M578.467,277.627c0.306,5.508-2.266,14.426-4.67,23.563
					c-3.431-2.029-8.767-3.723-16.79-3.07c-17.555,1.428-37.964,3.266-42.659,3.674c-4.694,0.408-18.354,12.318-7.34,45.961
					c-10.169-0.49-18.595-1.006-19.457-1.277c-2.086-0.66-0.986-1.1-1.755-7.137c-0.77-6.041-3.405-29.209-4.283-32.723
					s-4.267-17.645-4.267-17.645s5.035-38.573-3.639-55.486c5.325-4.05,24.715-2.548,32.168-2.689l7.41,0.813l0.345,1.196
					c0,0-18.777,7.959-20.41,11.225c-1.632,3.265,4.9,25.309,6.329,28.983C500.877,276.688,513.181,288.16,578.467,277.627z"/>
				<path style="fill-rule:evenodd;clip-rule:evenodd;fill:#FCEADD;" d="M500.7,238.83c-1.104-1.867-1.964-3.903-2.522-6.107
					c-0.173-0.677-0.249-1.356-0.242-2.022c3.12,0.059,5.89,0.133,7.84,0.096l7.41,0.813l0.345,1.196
					C513.53,232.806,506.525,235.774,500.7,238.83z"/>
				<path style="fill-rule:evenodd;clip-rule:evenodd;fill:#EB6B5D;" d="M541.186,212.788c0,0,0,10.487,0,13.671
					c0,3.185,1.538,4.228,2.033,4.228c0,0,0.439,14.603-12.628,15.042c-13.066,0.441-22.841-7.135-24.816-14.932
					c0,0,3.843-1.098,3.843-6.479c0-5.381,0-22.949,0-22.949L541.186,212.788z"/>
				<path style="fill-rule:evenodd;clip-rule:evenodd;fill:#F4AD85;" d="M439.028,278.006l-4.854,2.25
					c0,0-18.424,26.848-22.155,33.436c-3.734,6.59-2.636,18.889,9.223,31.625c11.859,12.736,43.044,38.541,43.044,38.541
					s6.84-7.91,8.157-12.191l0.002-2.361c0,0-31.778-39.09-32.217-40.627c-0.439-1.535-0.988-2.855,0.329-4.83
					c1.318-1.977,20.49-21.191,20.49-21.191S467.967,288.932,439.028,278.006z"/>
				<path style="fill-rule:evenodd;clip-rule:evenodd;fill:#EF8871;" d="M410.145,320.533c-0.378,6.74,2.592,15.648,11.097,24.783
					c11.859,12.736,43.044,38.541,43.044,38.541s1.343-1.553,2.953-3.654C457.086,373.023,419.685,342.873,410.145,320.533z"/>
				<path style="fill-rule:evenodd;clip-rule:evenodd;fill:#EF8871;" d="M439.028,278.006l-4.854,2.25c0,0-0.751,1.096-1.981,2.898
					c5.831,3.969,15.952,11.404,16.821,15.758c1.015,5.068-10,18.656-9.08,26.162c0.13-0.381,0.331-0.787,0.623-1.227
					c1.318-1.977,20.49-21.191,20.49-21.191S467.967,288.932,439.028,278.006z"/>
				<path style="fill-rule:evenodd;clip-rule:evenodd;fill:#FFFFFF;" d="M532.176,245.601c1.678-1.574,11.042-14.914,11.042-14.914
					s-1.985-0.089-1.985-3.323c0,0,5.143,3.02,5.633,3.323c0.491,0.302,0.489,23.366-1.143,24.508c0,0-0.57,0.613-1.837,0.082
					C542.62,254.746,532.176,245.601,532.176,245.601z"/>
				<path style="fill-rule:evenodd;clip-rule:evenodd;fill:#FFFFFF;" d="M532.176,245.601c0,0-5.881,15.03-7.968,15.676
					c-2.085,0.648-20.906-30.479-20.906-30.479l4.905-3.973l0.897,2.856L532.176,245.601z"/>
				<path style="fill-rule:evenodd;clip-rule:evenodd;fill:#FCD259;" d="M473.607,233.486c0,0-9.821,6.858-11.139,8.175
					c-1.317,1.317-28.438,36.95-28.768,37.333c-0.331,0.385-0.165,0.934-0.165,0.934c12.891,6.477,20.77,18.832,27.123,27.836
					c0.851,1.207,16.587-18.791,16.587-18.791S488.768,248.799,473.607,233.486z"/>
				<path style="fill-rule:evenodd;clip-rule:evenodd;fill:#F7B630;" d="M473.607,233.486c0,0-1.461,1.02-3.328,2.347
					c0.845,8.248,2.015,23.829-0.019,32.692c-1.809,7.885-13.688,17.078-22.157,22.762c5.049,5.475,9.035,11.49,12.556,16.477
					c0.851,1.207,16.587-18.791,16.587-18.791S488.768,248.799,473.607,233.486z"/>
				<path style="fill-rule:evenodd;clip-rule:evenodd;fill:#1C6263;" d="M564.2,348.504l0.635,1.17c0,0,17.759,53.291,19.077,64.055
					c1.317,10.758-53.366,15.371-57.977,15.809c-4.613,0.439-55.342-5.707-56.441-7.246c-1.098-1.537-4.392-10.756-4.392-12.299
					s11.421-41.396,12.19-44.469c0.768-3.074,7.255-15.293,7.255-15.293L564.2,348.504z"/>
				<path style="fill-rule:evenodd;clip-rule:evenodd;fill:#174B56;" d="M564.2,348.504l0.635,1.17c0,0,2.191,6.572,5.089,15.566
					c-3.845-2.891-7.9-5.613-9.849-5.893c-4.287-0.611-44.904,5.717-48.578,5.92c-3.674,0.205-16.124,35.543-13.064,50.123
					c1.57,7.473-14.559,6.182-30.653,3.147c-1.279-3.273-2.678-7.537-2.678-8.545c0-1.543,11.419-41.396,12.19-44.469
					c0.768-3.074,7.255-15.293,7.255-15.293L564.2,348.504L564.2,348.504z M562.525,421.398c0,0-9.186-31.025-11.431-34.291
					c-2.246-3.266,4.899,29.188,4.693,32.658C555.584,423.234,562.525,421.398,562.525,421.398z"/>
				<path style="fill-rule:evenodd;clip-rule:evenodd;fill:#000618;" d="M566.273,338.441c0,0-27.774,7.143-80.477-0.291
					c0,0-1.315,0.631-1.534,1.328c-0.22,0.699-1.098,5.973-0.988,7.051c0.11,1.08,0.385,2.988,1.153,4.129
					c0.768,1.143,38.102,7.369,58.087,4.066c19.984-3.305,21.961-3.559,22.729-5.211c0.769-1.652,1.756-8.574,1.756-9.717
					S566.273,338.441,566.273,338.441z"/>
				<path style="fill-rule:evenodd;clip-rule:evenodd;fill:#F4AD85;" d="M593.538,298.852l2.164,1.668l1.071,2.103l13.431-39.125
					l19.646,6.744c0,0-14.707,69.209-16.904,72.504c-2.194,3.295-9.663,9.662-18.667,7.906
					c-9.005-1.758-23.862-31.102-23.862-31.102S570.123,297.727,593.538,298.852z"/>
				<path style="fill-rule:evenodd;clip-rule:evenodd;fill:#EF8871;" d="M596.773,302.623l13.431-39.125l19.646,6.744
					c0,0-2.692,12.674-5.946,27.434c-0.002-0.008-0.354-13.133-1.068-15.783c-0.716-2.654-13.573,1.938-15.002,5.203
					c-1.431,3.266-14.9,30.514-16.228,32.045C590.279,320.672,596.773,302.623,596.773,302.623L596.773,302.623z M615.915,332.475
					c-4.066,17.033-19.31,11.564-20.531,10.342c-1.225-1.223-11.227-6.529-15.31-21.84c-2.497-9.369,0.433-16.596,3.082-20.795
					c-12.936,4.625-12.739,19.369-12.739,19.369s14.859,29.344,23.862,31.102c9.004,1.756,16.473-4.611,18.667-7.906
					C613.43,342.023,614.515,338.121,615.915,332.475z"/>
				<path style="fill-rule:evenodd;clip-rule:evenodd;fill:#EF8871;" d="M601.524,246.023l-2.232,1.067c0,0,0.088,1.172,0.528,2.911
					c0.441,1.741,0.454,3.62,0.676,7.521c0.221,3.898,0.086,6.031,3.483,10.08c3.398,4.049,10.829,9.506,12.337,9.908
					c1.508,0.406,4.986,0.451,8.844-2.686c3.858-3.137,10.344-8.76,13.623-11.52c3.278-2.758,4.715-4.627,4.715-4.627l-4.503-4.305
					c0,0-1.818,1.008-2.606,0.578c-0.79-0.43,0.825-2.328,0.825-2.328l0.05-9.991c0,0-0.451,0.193-0.553-0.196
					c-0.104-0.39,2.761-3.728,3.021-4.604L601.524,246.023z"/>
				<path style="fill-rule:evenodd;clip-rule:evenodd;fill:#F4AD85;" d="M627.587,223.645c0,0,2.738-1.749,3.694-1.55
					c0.957,0.201,4.077,2.441,3.973,4.018c-0.104,1.579-1.413,7.391-5.096,8.65C626.476,236.02,627.587,223.645,627.587,223.645z"/>
				<path style="fill-rule:evenodd;clip-rule:evenodd;fill:#5D6378;" d="M601.37,223.662L601.37,223.662
					c-0.231,0.013-0.408,0.212-0.395,0.444l0.5,8.736c0.014,0.232,0.213,0.409,0.443,0.395l0,0c0.232-0.012,0.409-0.211,0.396-0.444
					l-0.5-8.736C601.801,223.827,601.602,223.648,601.37,223.662z"/>
				<path style="fill-rule:evenodd;clip-rule:evenodd;fill:#5D6378;" d="M601.974,234.19L601.974,234.19
					c-0.229,0.014-0.409,0.213-0.396,0.444l0.199,3.472c0.012,0.231,0.213,0.409,0.442,0.395l0,0
					c0.232-0.014,0.41-0.213,0.397-0.444l-0.199-3.472C602.404,234.354,602.205,234.177,601.974,234.19z"/>
				<path style="fill-rule:evenodd;clip-rule:evenodd;fill:#5D6378;" d="M602.264,239.254L602.264,239.254
					c-0.232,0.012-0.408,0.211-0.395,0.444l0.197,3.471c0.014,0.231,0.213,0.409,0.444,0.395l0,0
					c0.231-0.012,0.408-0.212,0.396-0.442l-0.199-3.473C602.694,239.418,602.495,239.241,602.264,239.254z"/>
				<path style="fill-rule:evenodd;clip-rule:evenodd;fill:#01020E;" d="M604.786,216.791l23.489-1.346
					c2.087-0.118,3.893,1.493,4.014,3.58l2.865,50.059c0.12,2.086-1.491,3.893-3.579,4.014l-23.488,1.344
					c-2.088,0.119-3.895-1.492-4.013-3.578l-2.867-50.059C601.089,218.718,602.699,216.911,604.786,216.791z"/>
				<path style="fill-rule:evenodd;clip-rule:evenodd;fill:#C6E3F1;" d="M604.411,221.223l24.742-1.418
					c0.914-0.051,1.702,0.653,1.756,1.567l2.467,43.104c0.053,0.914-0.653,1.705-1.565,1.756l-24.741,1.418
					c-0.913,0.053-1.703-0.652-1.756-1.566l-2.468-43.105C602.794,222.064,603.5,221.274,604.411,221.223z"/>
				<path style="fill-rule:evenodd;clip-rule:evenodd;fill:#FFFFFF;" d="M617.335,230.145c0.795-0.046,1.568,0.035,2.301,0.226
					c-0.354,0.622-0.538,1.346-0.494,2.111c0.119,2.109,1.933,3.721,4.049,3.601c0.631-0.037,1.219-0.223,1.727-0.523
					c0.139,0.5,0.229,1.021,0.259,1.56c0.233,4.087-2.898,7.59-6.995,7.824c-4.097,0.235-7.607-2.889-7.841-6.975
					C610.104,233.883,613.237,230.38,617.335,230.145z"/>
				<path style="fill-rule:evenodd;clip-rule:evenodd;fill:#0F1630;" d="M614.402,269.475l10.333-0.592
					c0.617-0.035,1.153,0.441,1.188,1.061l0,0c0.035,0.619-0.44,1.152-1.06,1.189l-10.333,0.592
					c-0.618,0.035-1.153-0.443-1.188-1.061l0,0C613.306,270.045,613.782,269.51,614.402,269.475z"/>
				<path style="fill-rule:evenodd;clip-rule:evenodd;fill:#0F1630;" d="M613.474,218.29l6.343-0.363
					c0.38-0.022,0.708,0.27,0.729,0.65l0,0c0.022,0.38-0.271,0.708-0.649,0.731l-6.344,0.361c-0.38,0.022-0.709-0.27-0.729-0.65l0,0
					C612.801,218.64,613.094,218.313,613.474,218.29z"/>
				<path style="fill-rule:evenodd;clip-rule:evenodd;fill:#FFFFFF;" d="M614.635,249.374l10.777-0.616
					c0.644-0.037,1.202,0.459,1.239,1.104l0,0c0.037,0.645-0.461,1.204-1.104,1.241l-10.778,0.615
					c-0.646,0.037-1.202-0.459-1.239-1.105l0,0C613.492,249.969,613.99,249.412,614.635,249.374z"/>
				<path style="fill-rule:evenodd;clip-rule:evenodd;fill:#FFFFFF;" d="M611.297,249.565h0.002c0.57-0.032,1.064,0.408,1.096,0.978
					l0.017,0.271c0.032,0.568-0.408,1.064-0.979,1.096l0,0c-0.57,0.033-1.063-0.406-1.098-0.977l-0.015-0.271
					C610.287,250.092,610.727,249.597,611.297,249.565z"/>
				<path style="fill-rule:evenodd;clip-rule:evenodd;fill:#F4AD85;" d="M602.191,242.798c0,0,4.38,0.081,5.339,0.483
					c0.957,0.404,1.58,2.015,1.229,5.192c-0.351,3.178-2.909,3.281-5.134,3.102c-2.228-0.18-4.227-3.025-4.333-4.484
					C599.183,245.631,600.406,242.667,602.191,242.798z"/>
				<path style="fill-rule:evenodd;clip-rule:evenodd;fill:#F4AD85;" d="M634.651,232.47c0,0-3.103,1.836-3.72,2.913
					c-0.614,1.077-0.466,2.617,0.214,3.843c0.68,1.228,2.107,2.05,3.381,2.057c1.274,0.007,3.927-1.557,4.545-2.433
					c0.618-0.876,1.399-1.805,0.56-3.324C638.791,234.005,636.291,231.465,634.651,232.47z"/>
				<path style="fill-rule:evenodd;clip-rule:evenodd;fill:#F4AD85;" d="M630.41,248.279c0,0,6.301-5.395,7.209-5.881
					c0.908-0.486,2.513-0.211,3.148,0.907c0.633,1.118,1.677,2.634,0.653,4.643c-1.021,2.007-5.807,6.271-6.86,6.749
					c-1.055,0.48-3.252,0.123-4.008-0.859C629.794,252.854,628.706,249.812,630.41,248.279z"/>
				<path style="fill-rule:evenodd;clip-rule:evenodd;fill:#F4AD85;" d="M632.47,258.432c0,0,7.335-4.596,8.032-4.965
					c0.695-0.365,2.225-0.195,3.003,1.104c0.777,1.297,1.051,3.078-0.007,4.107c-1.057,1.029-7.357,4.83-8.46,5
					c-1.103,0.168-2.188-0.879-2.592-2.004C632.043,260.551,631.727,259.065,632.47,258.432z"/>
				<path style="fill-rule:evenodd;clip-rule:evenodd;fill:#01020E;" d="M482.882,168.792c0,0,7.108,17.531-3.242,31.28
					c-10.35,13.749-14.895,27.548-5.618,45.346c9.277,17.798,2.891,27.709,2.72,29.699c-0.171,1.992,4.072,2.615,6.358-2.379
					c8.065,20.957,43.401,22.588,36.009-11.676c-0.017-0.076-0.082-0.217-0.007-0.236c0.106-0.029,0.194,0.105,0.291,0.154
					c8.489,4.402,11.445-6.273-1.763-19.599c-16.001-16.143-4.436-29.873,2.293-40.1
					C528.181,188.733,530.712,157.735,482.882,168.792z"/>
				<path style="fill-rule:evenodd;clip-rule:evenodd;fill:#000618;" d="M480.596,198.718c-0.302,0.454-0.618,0.907-0.956,1.354
					c-10.35,13.749-14.896,27.548-5.618,45.346c9.277,17.798,2.891,27.709,2.72,29.699c-0.171,1.992,4.07,2.615,6.358-2.379
					c5.255,13.654,22.083,19.1,31.13,11.764c9.965-13.315-4.637-28.727-19.016-42.089c-14.384-13.367-13.643-26.898-12.597-33.429
					c1.047-6.531,1.911-10.377,0.545-11.021c-1.366-0.645-2.566,0.757-2.566,0.757V198.718z"/>
				<path style="fill-rule:evenodd;clip-rule:evenodd;fill:#EB6B5D;" d="M491.007,173.696c-0.257,0.023-0.507,0.056-0.757,0.098
					l-0.008,0.001h0.001c-4.609,0.775-8.241,4.646-8.528,9.513c-0.332,5.654,3.983,10.509,9.638,10.841
					c5.654,0.333,10.511-3.983,10.842-9.636c0.194-3.288-1.182-6.303-3.479-8.317c0.141,3.036-0.489,6.761-4.366,6.983l0.347-5.906
					C494.836,174.884,492.649,173.694,491.007,173.696z"/>
				<path style="fill-rule:evenodd;clip-rule:evenodd;fill:#EB6B5D;" d="M561.242,176.49c0.253,0.044,0.501,0.096,0.747,0.157
					l0.007,0.003v-0.002c4.534,1.14,7.847,5.288,7.745,10.161c-0.118,5.663-4.805,10.161-10.468,10.042
					c-5.665-0.118-10.161-4.805-10.043-10.468c0.067-3.292,1.68-6.188,4.128-8.015c-0.38,3.015-0.049,6.78,3.799,7.309l0.123-5.914
					C557.33,177.37,559.604,176.358,561.242,176.49z"/>
				<path style="fill-rule:evenodd;clip-rule:evenodd;fill:#F4AD85;" d="M530.033,123.97L530.033,123.97
					c-19.303-0.769-35.723,14.396-36.49,33.694l-1.271,31.917c-0.768,19.299,14.396,35.719,33.696,36.487l0,0
					c19.297,0.768,35.717-14.395,36.485-33.692l1.269-31.918C564.492,141.158,549.328,124.738,530.033,123.97z"/>
				<path style="fill-rule:evenodd;clip-rule:evenodd;fill:#EF8871;" d="M505.299,132.874c-6.873,6.129-11.363,14.918-11.756,24.79
					l-1.271,31.917c-0.768,19.299,14.396,35.719,33.693,36.487c-26.606-3.544-23.892-38.385-20.973-49.95
					c2.918-11.566,10.168-12.04,10.168-12.04l13.457-0.434l11.964-3.74c0,0,9.295-21.59,10.149-28.088
					c-1.04-0.846-2.131-1.634-3.266-2.36C538.754,128.932,515.104,132.483,505.299,132.874z"/>
				<path style="fill-rule:evenodd;clip-rule:evenodd;fill:#000618;" d="M560.874,176.966c0,0-0.093,2.347-0.18,4.523
					c-0.088,2.178,0.336,4.628,2.006,4.695l0.196-4.944c0.037-0.922,1.448-3.407,3.672-2.063
					c27.076-45.49-14.637-80.119-50.374-69.768c-5.601,1.623-11.672,10.777-11.672,10.777s-4.525-4.377-8.967-2.371
					c-4.442,2.004-20.113,28.899-20.387,35.769c-0.273,6.871,12.483,21.011,12.483,21.011c4.502,0.179,5.063,3.851,5.063,3.851
					l-0.195,4.944c1.67,0.066,3.789-2.283,3.875-4.461c0.088-2.178,0.181-4.523,0.181-4.523
					c14.113-5.609,19.243-23.903,19.243-23.903S538.113,179.381,560.874,176.966z"/>
				<path style="fill-rule:evenodd;clip-rule:evenodd;fill:#E8685B;" d="M552.492,192.25c-2.551,0.079-4.556,2.213-4.476,4.765
					c0.079,2.551,2.213,4.555,4.765,4.478c2.553-0.081,4.557-2.215,4.477-4.766C557.18,194.175,555.045,192.17,552.492,192.25z"/>
				<path style="fill-rule:evenodd;clip-rule:evenodd;fill:#E8685B;" d="M512.743,193.493c-2.551,0.079-4.557,2.213-4.476,4.765
					c0.079,2.551,2.213,4.555,4.765,4.476c2.551-0.08,4.557-2.213,4.476-4.765C517.429,195.417,515.295,193.412,512.743,193.493z"/>
				<path style="fill-rule:evenodd;clip-rule:evenodd;fill:#01020E;" d="M522.031,172.294c0.658,0.4,0.866,1.261,0.465,1.92
					c-0.402,0.658-1.262,0.868-1.92,0.466c-0.012-0.007-3.951-2.499-8.252-0.48c-0.698,0.329-1.536,0.027-1.865-0.672
					c-0.329-0.701-0.027-1.537,0.674-1.866C516.813,168.994,522.017,172.286,522.031,172.294z"/>
				<path style="fill-rule:evenodd;clip-rule:evenodd;" d="M555.489,170.403c0.711,0.295,1.049,1.116,0.753,1.827
					c-0.295,0.71-1.114,1.048-1.827,0.753c-0.012-0.005-4.286-1.864-8.225,0.792c-0.642,0.43-1.515,0.261-1.946-0.38
					c-0.433-0.643-0.264-1.516,0.378-1.946C549.824,167.942,555.474,170.398,555.489,170.403z"/>
				<path style="fill-rule:evenodd;clip-rule:evenodd;fill:#01020E;" d="M524.479,198.977c0.018,5.207,4.253,9.411,9.46,9.391
					c5.204-0.019,9.408-4.253,9.39-9.459h-0.015c-0.004-0.895-0.738-1.624-1.635-1.623l-15.563,0.057
					c-0.896,0.003-1.626,0.738-1.622,1.633H524.479z"/>
				<path style="fill-rule:evenodd;clip-rule:evenodd;fill:#D64341;" d="M528.017,206.303c1.621,1.298,3.683,2.073,5.923,2.065
					c1.829-0.007,3.534-0.534,4.977-1.441c-0.731-1.933-2.853-3.372-5.403-3.458C531.08,203.389,528.954,204.562,528.017,206.303z"
					/>
				<path style="fill-rule:evenodd;clip-rule:evenodd;fill:#FFFFFF;" d="M541.153,197.29l-14.627,0.052
					c-0.227,1.619,0.528,3.25,1.619,3.603c1.325,0.427,11.908,0.113,12.654-0.724C541.159,199.817,541.203,198.521,541.153,197.29z"
					/>
				<path style="fill-rule:evenodd;clip-rule:evenodd;fill:#0F1630;" d="M508.556,115.077c3.965,13.667,12.684,33.36,30.835,39.744
					c13.754,4.837,26.336,2.661,35.729-0.929c0.591-8.033-1.008-15.353-4.19-21.686c-14.214,6.857-44.34,15.973-60.755-18.802
					C509.608,113.951,509.066,114.517,508.556,115.077z"/>
				<path style="fill-rule:evenodd;clip-rule:evenodd;fill:#F8CAB0;" d="M536.662,188.35c0,0-0.632,3.949,0.035,5.795
					c0.665,1.845,3.521,1.219,3.397-0.738c-0.121-1.959-2.021-4.966-2.375-5.351C537.364,187.671,536.651,187.777,536.662,188.35z"
					/>
				<path style="fill-rule:evenodd;clip-rule:evenodd;fill:#01020E;" d="M560.874,176.966c0,0-0.093,2.347-0.18,4.523
					c-0.088,2.18,0.336,4.628,2.006,4.695l0.196-4.944c0.037-0.922,1.448-3.407,3.672-2.063c3.93-6.602,6.401-12.971,7.661-19.008
					c-37.061,16.048-59.159-14.718-59.159-14.718c-24.626,25.727-39.682,9.852-39.758,9.773
					c1.403,7.248,12.339,19.373,12.339,19.373c4.502,0.179,5.063,3.851,5.063,3.851l-0.195,4.944
					c1.67,0.066,3.789-2.283,3.877-4.461c0.086-2.178,0.179-4.523,0.179-4.523c14.113-5.607,19.243-23.903,19.243-23.903
					S538.113,179.381,560.874,176.966z"/>
				<path style="fill-rule:evenodd;clip-rule:evenodd;fill:#01020E;" d="M554.115,184.405c-0.095-0.794-0.497-1.511-1.125-2.005
					c-0.628-0.495-1.42-0.718-2.213-0.623c-0.794,0.094-1.514,0.498-2.006,1.126c-0.495,0.626-0.718,1.42-0.625,2.213
					c0.079,0.66-0.392,1.258-1.052,1.337c-0.66,0.079-1.258-0.393-1.338-1.054c-0.17-1.428,0.232-2.857,1.123-3.986
					c0.889-1.131,2.184-1.857,3.611-2.026c1.431-0.171,2.857,0.231,3.988,1.121c0.581,0.457,1.056,1.021,1.401,1.656
					c0.16,0.015,0.466,0.007,0.711-0.229c0.139-0.132,0.356-0.128,0.488,0.008c0.132,0.138,0.126,0.356-0.011,0.488
					c-0.278,0.269-0.604,0.373-0.879,0.407l0.01,0.025c0.297,0.029,0.669-0.005,1.03-0.231c0.162-0.102,0.374-0.054,0.474,0.108
					c0.102,0.162,0.053,0.375-0.107,0.475c-0.407,0.253-0.824,0.336-1.188,0.339l0.001,0.006c0.314,0.088,0.683,0.119,1.088,0.019
					c0.184-0.044,0.371,0.069,0.415,0.255c0.044,0.185-0.071,0.371-0.255,0.415c-0.414,0.102-0.801,0.1-1.143,0.039
					c-0.013,0.591-0.458,1.099-1.063,1.17C554.792,185.537,554.192,185.066,554.115,184.405z"/>
				<path style="fill-rule:evenodd;clip-rule:evenodd;fill:#01020E;" d="M515.438,185.442c-0.037-0.799,0.241-1.572,0.779-2.163
					c0.539-0.593,1.283-0.94,2.084-0.977c0.797-0.037,1.57,0.243,2.161,0.78c0.591,0.539,0.94,1.283,0.977,2.082
					c0.03,0.665,0.595,1.179,1.258,1.146c0.665-0.03,1.179-0.594,1.148-1.258c-0.067-1.437-0.699-2.779-1.763-3.75
					c-1.063-0.969-2.457-1.472-3.896-1.405c-1.436,0.066-2.78,0.696-3.75,1.759c-0.498,0.547-0.873,1.182-1.111,1.864
					c-0.156,0.042-0.457,0.084-0.739-0.112c-0.157-0.106-0.371-0.066-0.479,0.091c-0.106,0.157-0.065,0.372,0.092,0.479
					c0.318,0.22,0.656,0.269,0.932,0.257l-0.004,0.025c-0.288,0.078-0.66,0.104-1.053-0.06c-0.178-0.074-0.379,0.01-0.451,0.186
					c-0.072,0.175,0.009,0.376,0.186,0.449c0.442,0.184,0.866,0.197,1.228,0.14v0.007c-0.297,0.137-0.655,0.228-1.07,0.197
					c-0.19-0.014-0.354,0.13-0.368,0.319c-0.014,0.189,0.13,0.356,0.319,0.368c0.425,0.032,0.805-0.034,1.135-0.15
					c0.108,0.583,0.631,1.01,1.237,0.981C514.955,186.669,515.469,186.106,515.438,185.442z"/>
				<g>
					<path style="fill-rule:evenodd;clip-rule:evenodd;fill:#F4AD85;" d="M460.507,380.535c4.633,3.541,7.358,11.172,15.533,1.906
						c8.176-9.266,10.084-12.535,10.084-12.535s4.293,0.137,5.108,0.137c0.819,0,1.908-2.18,0.546-3.271
						c-1.362-1.09-0.885-0.274-0.885-0.274c3.905-1.807,1.842-3.797,0.681-5.041c0,0,2.453-0.68,2.181-2.316
						c-0.273-1.635-2.861-1.906-2.861-1.906s2.656-0.682,1.293-2.59c-0.464-0.652-4.555-1.16-7.424-1.15
						c-2.3,0.008-3.379,0.227-4.454,1.883l-8.901,13.713l-3.814-3.543L460.507,380.535z"/>
					<path style="fill-rule:evenodd;clip-rule:evenodd;fill:#EF8871;" d="M482.696,367.994c0,0-5.341,8.145-9.429,11.938
						c-1.46,1.354-2.762,2.154-3.603,1.832c-0.31-0.119-1.155-0.658-2.428-1.561c-1.245-0.881-2.899-2.105-4.861-3.621l-1.869,3.953
						c0.75,0.572,1.448,1.254,2.131,1.951c2.631,2.699,4.98,5.668,8.851,3.779c1.317-0.645,2.812-1.852,4.552-3.824
						c8.176-9.266,10.084-12.535,10.084-12.535s4.293,0.137,5.108,0.137c0.541,0,1.197-0.947,1.192-1.906
						c-0.519,0.086-1.03,0.131-1.492,0.105C488.719,368.119,482.696,367.994,482.696,367.994z"/>
				</g>
			</g>
			<g>
				<g>
					<g>
						<path style="fill-rule:evenodd;clip-rule:evenodd;fill:#000618;" d="M169.816,183.777c0.148-0.361-0.023-0.775-0.387-0.922
							c-0.361-0.148-0.773,0.025-0.922,0.387c-0.032,0.078-11.53,27.352,8.42,43.266c0.306,0.243,0.749,0.192,0.993-0.113
							c0.243-0.306,0.192-0.75-0.111-0.993C158.698,210.159,169.786,183.854,169.816,183.777z"/>
						<path style="fill-rule:evenodd;clip-rule:evenodd;fill:#000618;" d="M241.929,147.422l13.886,10.764
							c0,0-3.846,10.843-1.027,23.685c2.82,12.842,59.002,76.924-21.656,90.666c-80.658,13.742-43.099-35.688-43.099-35.688
							s-28.094-3.953-21.409-44.797C175.309,151.21,241.929,147.422,241.929,147.422z"/>
						<path style="fill-rule:evenodd;clip-rule:evenodd;fill:#01020E;" d="M189.417,237.704c0.385-0.552,0.616-0.855,0.616-0.855
							s-1.011-0.143-2.6-0.65c-2.746-2.167-5.601-4.768-8.477-7.888c-13.984-15.162-6.401-40.701-6.401-40.701l5.896-2.947
							c0,0,11.606-6.605,14.74-8.297c3.134-1.691,42.001-6.023,56.501,12.587c14.497,18.606,7.558,50.48,7.558,50.48
							s-45.594,6.475-48.215,6.744C207.085,246.377,199.124,244.78,189.417,237.704z"/>
						<path style="fill-rule:evenodd;clip-rule:evenodd;fill:#000618;" d="M251.476,175.646c-0.264-0.29-0.712-0.311-1.002-0.047
							c-0.289,0.263-0.311,0.712-0.045,1.001c0.1,0.109,35.265,38.224,17.814,67.085c-0.203,0.334-0.096,0.768,0.238,0.971
							c0.333,0.203,0.768,0.096,0.971-0.238C287.457,214.639,251.579,175.757,251.476,175.646z"/>
					</g>
					<path style="fill-rule:evenodd;clip-rule:evenodd;fill:#FCD259;" d="M187.206,230.687c0,0-11.383,2.024-18.082,6.965
						c-6.698,4.942-26.901,57.977-28.22,60.174c0,0-0.383,1.207-0.164,2.307c0,0,15.702,6.342,24.864,20.066
						c0,0,3.74,0.574,5.276-2.938C172.417,313.746,187.206,230.687,187.206,230.687z"/>
					<path style="fill-rule:evenodd;clip-rule:evenodd;fill:#F7B630;" d="M187.206,230.687c0,0-11.383,2.024-18.082,6.965
						c-0.189,0.138-0.388,0.321-0.596,0.532c0.363,1.771,0.611,4.333-0.205,6.663c-1.428,4.082-17.858,40.921-19.186,44.394
						c-0.798,2.088-3.669,2.734-5.827,2.918c-1.298,3.176-2.166,5.268-2.408,5.668c0,0-0.383,1.207-0.164,2.307
						c0,0,15.702,6.342,24.864,20.066c0,0,3.74,0.574,5.276-2.938C172.417,313.746,187.206,230.687,187.206,230.687z"/>
					<path style="fill-rule:evenodd;clip-rule:evenodd;fill:#FCD259;" d="M199.614,234.201l-6.479-3.514c0,0-4.228,0-5.93,0
						c-1.702,0-10.433,4.996-13.067,8.29c-2.636,3.294-15.812,30.744-16.253,38.65c-0.439,7.906,5.052,22.842,7.468,35.357
						c2.416,12.518,4.831,27.232,4.831,27.232s0.657,4.502,2.634,5.272c1.977,0.766,10.981,3.072,19.326,3.402
						c8.344,0.33,54.573-1.756,56.66-2.414c2.085-0.66,0.986-1.1,1.754-7.137c0.769-6.041,3.404-29.209,4.284-32.723
						c0.878-3.514,4.265-17.645,4.265-17.645s-5.033-38.573,3.64-55.486c-5.327-4.05-24.715-2.548-32.168-2.689L199.614,234.201z"/>
					<path style="fill-rule:evenodd;clip-rule:evenodd;fill:#F7B630;" d="M157.886,277.627c-0.306,5.508,2.266,14.426,4.672,23.563
						c3.429-2.029,8.764-3.723,16.79-3.07c17.553,1.428,37.964,3.266,42.658,3.674c4.694,0.408,18.353,12.318,7.339,45.961
						c10.169-0.49,18.595-1.006,19.459-1.277c2.085-0.66,0.986-1.1,1.754-7.137c0.769-6.041,3.404-29.209,4.284-32.723
						c0.878-3.514,4.265-17.645,4.265-17.645s-5.033-38.573,3.64-55.486c-5.327-4.05-24.715-2.548-32.168-2.689l-7.412,0.813
						l-0.345,1.196c0,0,18.779,7.959,20.412,11.225c1.633,3.265-4.9,25.309-6.328,28.983
						C235.477,276.688,223.172,288.16,157.886,277.627z"/>
					<path style="fill-rule:evenodd;clip-rule:evenodd;fill:#FFFFFF;" d="M199.614,234.201l-6.479-3.514c0,0-4.228,0-5.93,0
						c-0.361,0-1.042,0.226-1.911,0.613c0.039,3.227,0.824,6.894,2.007,9.766c3.201,7.758,9.796,12.215,18.198,12.497
						c13.461,0.453,29.13-6.851,32.678-20.839c0.171-0.677,0.249-1.356,0.24-2.022c-3.12,0.059-5.887,0.133-7.837,0.096
						L199.614,234.201z"/>
					<path style="fill-rule:evenodd;clip-rule:evenodd;fill:#FCEADD;" d="M235.653,238.83c1.106-1.867,1.965-3.903,2.524-6.107
						c0.171-0.677,0.249-1.356,0.24-2.022c-3.12,0.059-5.887,0.133-7.837,0.096l-7.412,0.813l-0.345,1.196
						C222.823,232.806,229.828,235.774,235.653,238.83z"/>
					<path style="fill-rule:evenodd;clip-rule:evenodd;fill:#EB6B5D;" d="M195.167,212.788c0,0,0,10.487,0,13.671
						c0,3.185-1.537,4.228-2.031,4.228c0,0-0.439,14.603,12.628,15.042c13.066,0.441,22.839-7.135,24.816-14.932
						c0,0-3.845-1.098-3.845-6.479c0-5.381,0-22.949,0-22.949L195.167,212.788z"/>
					<path style="fill-rule:evenodd;clip-rule:evenodd;fill:#F4AD85;" d="M297.326,278.006l4.852,2.25
						c0,0,18.424,26.848,22.157,33.436c3.734,6.59,4.604,20.363-7.257,33.1c-11.859,12.738-46.977,37.066-46.977,37.066
						s-4.873-7.91-6.191-12.191c5.645-7.746,33.78-34.697,34.675-37.824c0.438-1.537,0.988-2.855-0.331-4.832
						c-1.317-1.977-22.949-26.353-22.949-26.353S268.389,288.932,297.326,278.006z"/>
					<path style="fill-rule:evenodd;clip-rule:evenodd;fill:#FCD259;" d="M262.748,233.486c0,0,9.82,6.858,11.137,8.175
						c1.319,1.317,28.44,36.95,28.769,37.333c0.329,0.385,0.164,0.934,0.164,0.934c-12.89,6.477-20.768,18.832-27.122,27.836
						c-0.851,1.207-16.588-18.791-16.588-18.791S247.585,248.799,262.748,233.486z"/>
					<path style="fill-rule:evenodd;clip-rule:evenodd;fill:#F7B630;" d="M262.748,233.486c0,0,1.458,1.02,3.328,2.347
						c-0.844,8.248-2.016,23.829,0.019,32.692c1.81,7.885,13.688,17.078,22.156,22.762c-5.047,5.475-9.035,11.49-12.554,16.477
						c-0.851,1.207-16.588-18.791-16.588-18.791S247.585,248.799,262.748,233.486z"/>
					<path style="fill-rule:evenodd;clip-rule:evenodd;fill:#1C6263;" d="M172.153,348.504l-0.635,1.17
						c0,0-17.759,53.291-19.076,64.055c-1.318,10.758,53.366,15.371,57.978,15.809c4.611,0.439,55.341-5.707,56.439-7.246
						c1.097-1.537,4.392-10.756,4.392-12.299s-11.419-41.396-12.187-44.469c-0.769-3.074-7.257-15.293-7.257-15.293L172.153,348.504
						z"/>
					<path style="fill-rule:evenodd;clip-rule:evenodd;fill:#174B56;" d="M172.153,348.504l-0.635,1.17c0,0-2.19,6.572-5.089,15.566
						c3.846-2.891,7.901-5.613,9.848-5.893c4.287-0.611,44.904,5.717,48.578,5.92c3.675,0.205,16.124,35.543,13.063,50.123
						c-1.568,7.473,14.56,6.182,30.655,3.147c1.278-3.273,2.678-7.537,2.678-8.545c0-1.543-11.421-41.396-12.189-44.469
						c-0.769-3.074-7.257-15.293-7.257-15.293L172.153,348.504L172.153,348.504z M173.83,421.398c0,0,9.185-31.025,11.429-34.291
						c2.246-3.266-4.898,29.188-4.694,32.658C180.769,423.234,173.83,421.398,173.83,421.398z"/>
					<path style="fill-rule:evenodd;clip-rule:evenodd;fill:#EA745D;" d="M171.743,172.516c-0.257,0.045-0.51,0.1-0.762,0.162
						l-0.007,0.003v-0.002c-4.621,1.169-7.995,5.405-7.887,10.372c0.13,5.776,4.915,10.357,10.691,10.229
						c5.776-0.128,10.355-4.913,10.229-10.688c-0.074-3.358-1.721-6.31-4.221-8.169c0.392,3.075,0.057,6.914-3.865,7.46
						l-0.133-6.033C175.736,173.409,173.413,172.38,171.743,172.516z"/>
					<path style="fill-rule:evenodd;clip-rule:evenodd;fill:#EA745D;" d="M247.406,171.237c0.26,0.025,0.517,0.058,0.771,0.1
						l0.009,0.002l-0.002-0.002c4.703,0.785,8.41,4.731,8.711,9.692c0.344,5.768-4.051,10.725-9.817,11.069
						c-5.768,0.348-10.723-4.047-11.069-9.813c-0.203-3.353,1.197-6.429,3.538-8.487c-0.14,3.096,0.508,6.897,4.462,7.116
						l-0.361-6.021C243.501,172.455,245.73,171.239,247.406,171.237z"/>
					<path style="fill-rule:evenodd;clip-rule:evenodd;fill:#F4AD85;" d="M205.628,119.956L205.628,119.956
						c-19.684,0.809-35.128,17.573-34.321,37.255l1.336,32.549c0.809,19.684,17.575,35.126,37.258,34.317l0,0
						c19.679-0.809,35.122-17.573,34.314-37.255l-1.335-32.549C242.073,134.592,225.307,119.149,205.628,119.956z"/>
					<path style="fill-rule:evenodd;clip-rule:evenodd;fill:#EF8871;" d="M205.628,119.956L205.628,119.956
						c-18.669,0.767-33.52,15.886-34.315,34.236c0.484,1.661,1.302,3.299,2.519,4.895l16.133-3.806c0,0,14.321,18.632,37.231,19.756
						c6.158,0.302,9.062,5.947,8.844,11.831c-0.529,14.33-8.92,36.203-39.178,35.305c4.083,1.407,8.482,2.092,13.04,1.905l0,0
						c19.679-0.807,35.122-17.573,34.314-37.255l-1.335-32.549C242.073,134.592,225.307,119.149,205.628,119.956z"/>
					<path style="fill-rule:evenodd;clip-rule:evenodd;fill:#EA745D;" d="M224.299,188.939c-2.602,0.058-4.663,2.212-4.606,4.812
						c0.058,2.6,2.212,4.664,4.812,4.606c2.6-0.058,4.664-2.213,4.606-4.813C229.053,190.943,226.897,188.881,224.299,188.939z"/>
					<path style="fill-rule:evenodd;clip-rule:evenodd;fill:#EA745D;" d="M185.215,189.582c-2.6,0.058-4.663,2.212-4.606,4.812
						c0.057,2.601,2.212,4.662,4.813,4.607c2.601-0.058,4.662-2.214,4.605-4.814C189.97,191.586,187.815,189.523,185.215,189.582z"
						/>
					<path style="fill-rule:evenodd;clip-rule:evenodd;fill:#01020E;" d="M225.695,166.812c0.73,0.127,1.429-0.365,1.555-1.094
						c0.126-0.729-0.365-1.43-1.091-1.555c-1.204-0.225-2.651-0.221-3.856-0.083c-2.654,0.309-5.09,1.368-6.911,3.365
						c-0.498,0.547-0.46,1.403,0.088,1.901c0.545,0.498,1.403,0.459,1.901-0.087C219.461,166.976,222.759,166.355,225.695,166.812z"
						/>
					<path style="fill-rule:evenodd;clip-rule:evenodd;fill:#01020E;" d="M180.514,166.996c2.805-1.03,6.131-1.126,8.648,0.697
						c0.601,0.436,1.445,0.299,1.879-0.302c0.434-0.601,0.299-1.443-0.302-1.879c-2.19-1.585-4.79-2.124-7.451-1.884
						c-1.209,0.108-2.628,0.402-3.757,0.864c-0.689,0.273-1.027,1.057-0.753,1.747C179.052,166.929,179.834,167.266,180.514,166.996
						z"/>
					<path style="fill-rule:evenodd;clip-rule:evenodd;fill:#000618;" d="M236.918,171.735c0,0,0.096,2.393,0.189,4.613
						c0.091,2.222,5.273,7.301,6.977,7.232l-0.332-8.108c0,0,0.569-3.747,5.16-3.936c13.421-16.772,10.509-42.401-5.075-55.112
						c-15.584-12.712-47.913-12.239-53.474-10.129c-5.562,2.111-10.977,11.917-10.977,11.917s-4.96-4.076-9.312-1.671
						c-4.351,2.402-18.066,31.033-17.779,38.039c0.287,7.005,14.417,20.33,14.417,20.33c4.591-0.188,5.467,3.5,5.467,3.5l0.206,5.04
						c1.704-0.069,2.563-2.391,2.472-4.613c-0.091-2.22-0.189-4.613-0.189-4.613c13.884-6.862,18.694-26.123,18.694-26.123
						S213.979,176.064,236.918,171.735z"/>
					<path style="fill-rule:evenodd;clip-rule:evenodd;fill:#0F1630;" d="M256.848,139.488c-1.114-6.494-3.746-12.658-7.773-17.74
						c-12.405,13.632-34.284,25.137-61.064-14.134c-1.136,0.829-2.235,1.888-3.243,3.014
						C196.046,131.009,221.785,165.542,256.848,139.488z"/>
					<path style="fill-rule:evenodd;clip-rule:evenodd;fill:#01020E;" d="M236.918,171.735c0,0,0.096,2.393,0.189,4.613
						c0.091,2.222,5.273,7.301,6.977,7.232l-0.332-8.108c0,0,0.569-3.747,5.16-3.936c5.253-6.564,8.003-14.485,8.471-22.456
						c-0.017,0.017-23.881,23.645-63.473-5.607c0,0-11.124,26.544-34.755,23.354c3.718,4.461,7.558,8.083,7.558,8.083
						c4.591-0.188,5.465,3.5,5.465,3.5l0.208,5.04c1.704-0.069,2.563-2.391,2.472-4.613c-0.091-2.22-0.189-4.613-0.189-4.613
						c13.884-6.862,18.694-26.123,18.694-26.123S213.979,176.064,236.918,171.735z"/>
					<path style="fill-rule:evenodd;clip-rule:evenodd;fill:#F8CAB0;" d="M199.067,190.621c0,0,0.005,3.566-0.936,4.162
						c-0.94,0.596-3.733,0.429-2.894-1.496c0.839-1.925,2.352-3.073,2.874-3.267C198.633,189.825,199.146,190.118,199.067,190.621z"
						/>
					<g>
						<path style="fill-rule:evenodd;clip-rule:evenodd;fill:#01020E;" d="M192.49,199.25c0.108,4.809,4.095,8.615,8.9,8.506
							c4.809-0.11,8.616-4.094,8.506-8.901h-0.016c-0.019-0.827-0.709-1.487-1.536-1.469l-14.372,0.328
							c-0.826,0.017-1.487,0.709-1.469,1.536H192.49z"/>
						<path style="fill-rule:evenodd;clip-rule:evenodd;fill:#E4414F;" d="M195.886,205.953c1.521,1.17,3.438,1.849,5.504,1.803
							c1.69-0.037,3.255-0.556,4.57-1.418c-0.709-1.771-2.693-3.065-5.048-3.099C198.663,203.208,196.72,204.329,195.886,205.953z"
							/>
						<path style="fill-rule:evenodd;clip-rule:evenodd;fill:#FFFFFF;" d="M208.537,197.396l-13.507,0.308
							c-0.181,1.498,0.545,2.992,1.557,3.297c1.232,0.372,11.002-0.107,11.675-0.89
							C208.588,199.731,208.606,198.533,208.537,197.396z"/>
					</g>
					<path style="fill-rule:evenodd;clip-rule:evenodd;fill:#01020E;" d="M221.514,174.4h0.002c0.841-0.01,1.618,0.28,2.229,0.773
						c0.257-0.068,0.694-0.25,0.932-0.728c0.137-0.273,0.469-0.385,0.745-0.248c0.273,0.139,0.385,0.473,0.248,0.746
						c-0.28,0.561-0.716,0.893-1.116,1.093l0.027,0.032c0.468-0.115,1.011-0.368,1.44-0.908c0.19-0.24,0.54-0.28,0.78-0.089
						c0.24,0.191,0.28,0.54,0.089,0.78c-0.479,0.605-1.069,0.956-1.622,1.157l0.007,0.008c0.523-0.037,1.101-0.189,1.662-0.557
						c0.256-0.167,0.603-0.094,0.77,0.162c0.167,0.258,0.094,0.603-0.164,0.768c-0.574,0.378-1.16,0.583-1.715,0.676l-0.771,0.12
						l0.052,4.216c0.025,1.919-1.526,3.51-3.446,3.534l0,0c-1.919,0.025-3.512-1.526-3.536-3.446l-0.057-4.554
						C218.044,176.014,219.595,174.423,221.514,174.4z"/>
					<path style="fill-rule:evenodd;clip-rule:evenodd;fill:#01020E;" d="M185.52,174.792h-0.002
						c-0.841,0.009-1.61,0.319-2.21,0.826c-0.258-0.063-0.699-0.235-0.947-0.708c-0.145-0.27-0.479-0.373-0.751-0.229
						c-0.271,0.145-0.374,0.479-0.231,0.751c0.292,0.552,0.736,0.876,1.141,1.066l-0.027,0.034c-0.469-0.105-1.02-0.345-1.46-0.875
						c-0.196-0.235-0.545-0.269-0.782-0.071c-0.235,0.196-0.267,0.545-0.071,0.78c0.493,0.594,1.089,0.932,1.648,1.118l-0.005,0.01
						c-0.525-0.025-1.106-0.164-1.675-0.519c-0.262-0.16-0.604-0.079-0.765,0.181c-0.162,0.26-0.081,0.604,0.179,0.765
						c0.584,0.363,1.175,0.554,1.732,0.635l0.775,0.101l0.044,4.216c0.02,1.919,1.607,3.475,3.527,3.454h0.002
						c1.92-0.021,3.473-1.607,3.453-3.529l-0.047-4.552C189.027,176.326,187.44,174.771,185.52,174.792z"/>
					<path style="fill-rule:evenodd;clip-rule:evenodd;fill:#000618;" d="M170.081,338.441c0,0,27.775,7.143,80.477-0.291
						c0,0,1.314,0.631,1.535,1.328c0.22,0.699,1.098,5.973,0.988,7.051c-0.109,1.08-0.385,2.988-1.153,4.129
						c-0.77,1.143-38.103,7.369-58.087,4.066c-19.986-3.305-21.961-3.559-22.73-5.211c-0.768-1.652-1.757-8.574-1.757-9.717
						S170.081,338.441,170.081,338.441z"/>
					<path style="fill-rule:evenodd;clip-rule:evenodd;fill:#F4AD85;" d="M142.817,298.852l-2.165,1.668l-1.072,2.103
						l-13.432-39.125l-19.646,6.744c0,0,14.71,69.209,16.906,72.504c2.195,3.295,9.661,9.662,18.665,7.906
						c9.004-1.758,23.864-31.102,23.864-31.102S166.232,297.727,142.817,298.852z"/>
					<path style="fill-rule:evenodd;clip-rule:evenodd;fill:#EF8871;" d="M139.58,302.625l-13.432-39.127l-19.645,6.744
						c0,0,0.111,0.627,3.365,15.385c0-4.272,15.353-6.07,18.652,1.469c1.428,3.266,14.898,30.514,16.226,32.045
						C146.074,320.672,139.58,302.625,139.58,302.625L139.58,302.625z M120.44,332.475c4.066,17.033,19.309,11.564,20.531,10.342
						c1.224-1.223,11.225-6.529,15.308-21.838c2.499-9.371-0.433-16.598-3.081-20.797c12.935,4.625,12.741,19.369,12.741,19.369
						s-14.86,29.344-23.864,31.102c-9.004,1.756-16.47-4.611-18.665-7.906C122.925,342.023,121.84,338.121,120.44,332.475z"/>
					<g>
						<path style="fill-rule:evenodd;clip-rule:evenodd;fill:#EF8871;" d="M134.829,246.023l2.233,1.067c0,0-0.089,1.172-0.53,2.911
							c-0.441,1.741-0.453,3.62-0.674,7.521c-0.223,3.898-0.088,6.031-3.485,10.08c-3.397,4.049-10.828,9.506-12.337,9.908
							c-1.508,0.406-4.986,0.451-8.842-2.686c-3.858-3.137-10.343-8.76-13.622-11.52c-3.281-2.758-4.716-4.627-4.716-4.627
							l4.503-4.305c0,0,1.818,1.008,2.607,0.578c0.789-0.43-0.826-2.328-0.826-2.328l-0.049-9.991c0,0,0.449,0.193,0.552-0.196
							c0.103-0.39-2.76-3.728-3.021-4.604L134.829,246.023z"/>
						<path style="fill-rule:evenodd;clip-rule:evenodd;fill:#F4AD85;" d="M108.768,223.645c0,0-2.74-1.749-3.696-1.55
							c-0.956,0.201-4.076,2.441-3.971,4.018c0.104,1.579,1.411,7.391,5.094,8.65C109.879,236.02,108.768,223.645,108.768,223.645z"
							/>
						<g>
							<path style="fill-rule:evenodd;clip-rule:evenodd;fill:#5D6378;" d="M134.982,223.662h0.002
								c0.23,0.013,0.408,0.212,0.395,0.444l-0.5,8.736c-0.013,0.232-0.214,0.409-0.444,0.395l0,0
								c-0.231-0.012-0.41-0.211-0.397-0.444l0.5-8.736C134.552,223.827,134.751,223.648,134.982,223.662z"/>
							<path style="fill-rule:evenodd;clip-rule:evenodd;fill:#5D6378;" d="M134.38,234.19L134.38,234.19
								c0.231,0.014,0.409,0.213,0.396,0.444l-0.199,3.472c-0.013,0.231-0.212,0.409-0.444,0.395l0,0
								c-0.231-0.014-0.409-0.213-0.395-0.444l0.197-3.472C133.949,234.354,134.148,234.177,134.38,234.19z"/>
							<path style="fill-rule:evenodd;clip-rule:evenodd;fill:#5D6378;" d="M134.089,239.254L134.089,239.254
								c0.233,0.012,0.41,0.211,0.397,0.444l-0.199,3.471c-0.014,0.231-0.213,0.409-0.444,0.395l0,0
								c-0.229-0.012-0.409-0.212-0.395-0.442l0.199-3.473C133.659,239.418,133.86,239.241,134.089,239.254z"/>
							<path style="fill-rule:evenodd;clip-rule:evenodd;fill:#01020E;" d="M131.567,216.791l-23.488-1.346
								c-2.088-0.118-3.895,1.493-4.013,3.58l-2.865,50.059c-0.12,2.086,1.491,3.893,3.578,4.014l23.489,1.344
								c2.087,0.119,3.894-1.492,4.014-3.578l2.865-50.059C135.266,218.718,133.655,216.911,131.567,216.791z"/>
							<path style="fill-rule:evenodd;clip-rule:evenodd;fill:#C6E3F1;" d="M131.942,221.223l-24.741-1.418
								c-0.914-0.051-1.704,0.653-1.756,1.567l-2.467,43.104c-0.054,0.914,0.651,1.705,1.565,1.756l24.741,1.418
								c0.913,0.053,1.704-0.652,1.756-1.566l2.468-43.105C133.559,222.064,132.855,221.274,131.942,221.223z"/>
							<path style="fill-rule:evenodd;clip-rule:evenodd;fill:#FFFFFF;" d="M119.02,230.145c-0.797-0.046-1.57,0.035-2.301,0.226
								c0.353,0.622,0.539,1.346,0.495,2.111c-0.122,2.109-1.933,3.721-4.049,3.601c-0.631-0.037-1.219-0.223-1.727-0.523
								c-0.139,0.5-0.228,1.021-0.258,1.56c-0.235,4.087,2.897,7.59,6.993,7.824c4.098,0.235,7.608-2.889,7.843-6.975
								C126.248,233.883,123.116,230.38,119.02,230.145z"/>
							<path style="fill-rule:evenodd;clip-rule:evenodd;fill:#0F1630;" d="M121.953,269.475l-10.334-0.592
								c-0.62-0.035-1.155,0.441-1.188,1.061l0,0c-0.036,0.619,0.44,1.152,1.06,1.189l10.334,0.592
								c0.618,0.035,1.153-0.443,1.188-1.061l0,0C123.049,270.045,122.571,269.51,121.953,269.475z"/>
							<path style="fill-rule:evenodd;clip-rule:evenodd;fill:#0F1630;" d="M122.881,218.29l-6.343-0.363
								c-0.38-0.022-0.708,0.27-0.729,0.65l0,0c-0.022,0.38,0.271,0.708,0.65,0.731l6.343,0.361c0.38,0.022,0.708-0.27,0.729-0.65
								l0,0C123.554,218.64,123.26,218.313,122.881,218.29z"/>
							<g>
								<path style="fill-rule:evenodd;clip-rule:evenodd;fill:#FFFFFF;" d="M121.72,249.374l-10.777-0.616
									c-0.645-0.037-1.204,0.459-1.241,1.104l0,0c-0.037,0.645,0.461,1.204,1.106,1.241l10.777,0.615
									c0.645,0.037,1.204-0.459,1.239-1.105l0,0C122.861,249.969,122.365,249.412,121.72,249.374z"/>
								<path style="fill-rule:evenodd;clip-rule:evenodd;fill:#FFFFFF;" d="M125.056,249.565L125.056,249.565
									c-0.571-0.032-1.065,0.408-1.097,0.978l-0.016,0.271c-0.032,0.568,0.407,1.064,0.978,1.096l0,0
									c0.57,0.033,1.065-0.406,1.097-0.977l0.015-0.271C126.067,250.092,125.627,249.597,125.056,249.565z"/>
							</g>
						</g>
						<path style="fill-rule:evenodd;clip-rule:evenodd;fill:#F4AD85;" d="M134.164,242.798c0,0-4.381,0.081-5.339,0.483
							c-0.959,0.404-1.582,2.015-1.231,5.192c0.353,3.178,2.911,3.281,5.136,3.102c2.227-0.18,4.225-3.025,4.333-4.484
							C137.171,245.631,135.948,242.667,134.164,242.798z"/>
						<path style="fill-rule:evenodd;clip-rule:evenodd;fill:#F4AD85;" d="M101.704,232.47c0,0,3.104,1.836,3.718,2.913
							c0.616,1.077,0.468,2.617-0.212,3.843c-0.681,1.228-2.107,2.05-3.382,2.057c-1.273,0.007-3.925-1.557-4.543-2.433
							c-0.618-0.876-1.401-1.805-0.561-3.324C97.563,234.005,100.064,231.465,101.704,232.47z"/>
						<path style="fill-rule:evenodd;clip-rule:evenodd;fill:#F4AD85;" d="M105.943,248.279c0,0-6.3-5.395-7.208-5.881
							c-0.91-0.486-2.514-0.211-3.147,0.907c-0.635,1.118-1.677,2.634-0.655,4.643c1.023,2.007,5.807,6.271,6.862,6.749
							c1.055,0.48,3.25,0.123,4.008-0.859C106.561,252.854,107.648,249.812,105.943,248.279z"/>
						<path style="fill-rule:evenodd;clip-rule:evenodd;fill:#F4AD85;" d="M103.885,258.432c0,0-7.337-4.596-8.032-4.965
							c-0.695-0.365-2.225-0.195-3.003,1.104c-0.778,1.297-1.05,3.078,0.007,4.107c1.057,1.029,7.356,4.83,8.461,5
							c1.101,0.168,2.188-0.879,2.592-2.004C104.313,260.551,104.627,259.065,103.885,258.432z"/>
					</g>
				</g>
				<g>
					<path style="fill-rule:evenodd;clip-rule:evenodd;fill:#F4AD85;" d="M277.548,378.815c-4.633,3.543-7.358,11.174-15.534,1.908
						c-8.175-9.266-10.083-12.537-10.083-12.537s-4.292,0.137-5.109,0.137c-0.817,0-1.908-2.18-0.545-3.27
						c1.362-1.09,0.886-0.273,0.886-0.273c-3.907-1.807-1.842-3.799-0.682-5.041c0,0-2.453-0.682-2.18-2.316
						c0.272-1.637,2.862-1.908,2.862-1.908s-2.657-0.682-1.295-2.59c0.464-0.652,4.556-1.158,7.424-1.15
						c2.302,0.008,3.38,0.227,4.456,1.883l8.9,13.713l3.816-3.543L277.548,378.815z"/>
					<path style="fill-rule:evenodd;clip-rule:evenodd;fill:#EF8871;" d="M255.359,366.275c0,0,5.34,8.143,9.43,11.936
						c1.46,1.355,2.761,2.154,3.602,1.832c0.309-0.119,1.155-0.658,2.428-1.561c1.246-0.881,2.901-2.105,4.863-3.621l1.868,3.953
						c-0.75,0.574-1.449,1.254-2.131,1.951c-2.631,2.699-4.981,5.668-8.851,3.779c-1.317-0.643-2.811-1.852-4.552-3.822
						c-8.175-9.266-10.083-12.537-10.083-12.537s-4.292,0.137-5.109,0.137c-0.541,0-1.197-0.947-1.192-1.906
						c0.518,0.086,1.03,0.131,1.492,0.106C249.336,366.398,255.359,366.275,255.359,366.275z"/>
				</g>
				<path style="fill-rule:evenodd;clip-rule:evenodd;fill:#EF8871;" d="M298.918,332.713c2.95-3.689-9.833-24.094-13.029-26.799
					c-2.712-2.293,8.73-12.549,19.771-20.561c-2.092-3.074-3.482-5.098-3.482-5.098c-5.463,2.865-10.016,6.785-13.929,11.031
					c-4.196,4.549-7.657,9.473-10.728,13.869c5.55,6.27,19.677,22.27,20.734,23.853c0.996,1.492,0.925,2.609,0.644,3.729
					C298.905,332.73,298.912,332.723,298.918,332.713z"/>
				<path style="fill-rule:evenodd;clip-rule:evenodd;fill:#EF8871;" d="M311.948,347.711
					c-10.917,8.137-29.527,22.047-36.291,27.102l0.023,0.049l1.788,3.783c10.959-7.861,31.173-22.789,39.61-31.854
					c7.151-7.68,9.675-15.738,9.73-22.371C325.412,332.647,320.679,341.203,311.948,347.711z"/>
			</g>
			<g>
				<path style="fill-rule:evenodd;clip-rule:evenodd;fill:#FADCC2;" d="M369.252,198.784c0,0-25.77,3.539-43.034,11.703
					c-17.264,8.163-7.773,18.694-7.773,18.694h50.807V198.784z"/>
				<path style="fill-rule:evenodd;clip-rule:evenodd;fill:#E8B79C;" d="M356.755,201.026c-5.212,1.091-11.492,2.597-17.707,4.554
					c1.065,0.768,1.871,1.663,2.072,2.676c0.738,3.725-6.418,6.531-7.098,11.686c-0.438,3.308-1.017,5.125,0.79,9.239h29.313
					c-3.127-7.466-5.138-13.026-5.26-17.193C358.762,208.447,357.884,204.597,356.755,201.026z"/>
				<path style="fill-rule:evenodd;clip-rule:evenodd;fill:#FADCC2;" d="M369.252,198.784c0,0,25.771,3.539,43.035,11.703
					c17.264,8.163,7.773,18.694,7.773,18.694h-50.808V198.784z"/>
				<path style="fill-rule:evenodd;clip-rule:evenodd;fill:#E8B79C;" d="M383.274,201.351c5.223,1.131,11.34,2.652,17.332,4.596
					c-0.825,0.682-1.427,1.454-1.596,2.31c-1.154,5.827,11.822,6.115,5.939,20.924h-28.941c3.125-7.466,5.137-13.026,5.258-17.193
					C381.365,208.553,382.194,204.831,383.274,201.351z"/>
				<path style="fill-rule:evenodd;clip-rule:evenodd;fill:#EB6B5D;" d="M388.689,178.142l-0.557,11.743c0,0,0,24.057,0,27.709
					c0,1.766,1.832,4.314,5.064,6.531c-2.83,2.759-8.095,21.131-13.471,24.916H359.59c-5.376-3.785-10.641-22.157-13.471-24.916
					c3.232-2.217,5.064-4.765,5.064-6.531c0-3.652,0-27.709,0-27.709l-0.557-11.743c0,0,9.367,1.511,19.032,3.64
					C379.322,179.653,388.689,178.142,388.689,178.142z"/>
				<path style="fill-rule:evenodd;clip-rule:evenodd;fill:#000618;" d="M351.183,215.311l-46.077,20.082l0.009,0.015
					c0,0-6.455,28.426-6.455,64.297l1.025,15.625c0.307,4.246,0.616,8.334,0.925,12.271l0.186,7.975c0,0-3.282,62.553-2.507,65.24
					c0.775,2.686,7.049,9.092,7.049,9.092c-0.248,1.695-0.518,3.506-0.805,5.4c11.292,4.25,32.282,9.721,65.128,9.469
					c32.847,0.252,53.835-5.219,65.128-9.469c-0.289-1.895-0.56-3.705-0.806-5.4c0,0,6.272-6.406,7.049-9.092
					c0.773-2.688-2.507-65.24-2.507-65.24l0.184-7.975c0.31-3.938,0.618-8.025,0.926-12.271l1.026-15.625
					c0-35.871-6.455-64.297-6.455-64.297l0.009-0.015l-46.082-17.799C388.133,239.247,351.183,242.292,351.183,215.311z"/>
				<path style="fill-rule:evenodd;clip-rule:evenodd;fill:#01020E;" d="M351.183,215.311l-38.041,16.58
					c16.922,17.913,33.254,33.719,33.254,33.719l6.208,5.527c0,0-1.412-26.959-1.719-30.123c-0.184-1.904,3.482-6.921,6.428-10.608
					C353.653,227.246,351.183,222.284,351.183,215.311L351.183,215.311z M345.13,423.824c-1.361-3.564,0.762-6.77,7.515-8.434
					c25.195-6.209,29.769-16.092,29.769-24.582s0-43.559,0-52.945c0-9.389-4.081-13.063-10.818-13.063c-6.735,0-30.616,0-30.616,0
					s-28.085-28.168,4.491-28.168c32.577,0,37.557,0.816,37.557-4.695c0-5.51,0.306-35.922,1.225-38.881
					c0.918-2.961,4.902-10.002,3.982-11.022c-0.445-0.496-6.924-4.275-13.463-8.025c7.25-1.883,13.362-7.611,13.362-16.416
					l46.081,17.799l-0.009,0.015c0,0,6.455,28.426,6.455,64.299l-1.026,15.623c-0.308,4.246-0.616,8.334-0.926,12.271l-0.184,7.975
					c0,0,3.28,62.553,2.507,65.24c-0.776,2.686-7.049,9.092-7.049,9.092c0.246,1.695,0.517,3.506,0.806,5.4
					c-11.293,4.25-32.281,9.721-65.128,9.469C360.596,424.846,352.434,424.478,345.13,423.824z"/>
				<path style="fill-rule:evenodd;clip-rule:evenodd;fill:#FFFFFF;" d="M351.183,215.311l-10.352,4.511
					c0.75,6.151,3.093,11.938,7.431,16.594c11.123,11.951,31.262,11.669,42.674,0.282c4.181-4.172,6.73-9.404,7.537-15.11
					l-10.34-3.995C388.134,239.247,351.183,242.292,351.183,215.311z"/>
				<path style="fill-rule:evenodd;clip-rule:evenodd;fill:#E3EDF2;" d="M351.183,215.311l-10.352,4.511
					c0.75,6.151,3.093,11.938,7.431,16.594c0.957,1.03,1.984,1.966,3.064,2.815c1.045-2.389,3.728-5.998,5.987-8.826
					C353.653,227.246,351.183,222.284,351.183,215.311L351.183,215.311z M386.046,240.595c1.752-1.108,3.396-2.406,4.891-3.897
					c4.181-4.172,6.73-9.404,7.537-15.11l-10.34-3.995c0,8.805-6.111,14.534-13.362,16.416
					C379.158,236.525,383.515,239.053,386.046,240.595z"/>
				<path style="fill-rule:evenodd;clip-rule:evenodd;fill:#FFFFFF;" d="M386.645,424.375c23.277-1.324,38.936-5.602,48.145-9.066
					c-0.287-1.895-0.558-3.705-0.806-5.4c0,0,6.272-6.406,7.048-9.092c0.776-2.688-2.506-65.24-2.506-65.24l0.186-7.977
					c0.308-3.936,0.616-8.023,0.924-12.27l1.024-15.625c0-35.871-6.453-64.297-6.453-64.297l0.009-0.015l-26.593-11.668
					c-6.416,11.034-19.13,35.223-19.827,54.762l-1.934,3.402v142.297L386.645,424.375z"/>
				<path style="fill-rule:evenodd;clip-rule:evenodd;fill:#FCEADD;" d="M397.201,423.531c17.548-1.824,29.846-5.309,37.588-8.223
					c-0.287-1.895-0.558-3.705-0.806-5.4c0,0,6.272-6.406,7.048-9.092c0.776-2.688-2.506-65.24-2.506-65.24l0.186-7.977l0.042-0.541
					c-6.983-18.922,0.317-33.047-3.471-43.197c4.415-1.24-2.478-5.623,4.474-7.965c-1.776-23.865-5.55-40.489-5.55-40.489
					l0.009-0.015l-26.593-11.668c-2.015,3.464-4.65,8.228-7.34,13.735c7.586,6.794,15.6,19.634,15.984,43.642l0.017,1.807v0.008
					c0.231,23.227,1.817,77.363,0.088,96.016c-2.181,23.51-8.779,39.043-19.645,42.148
					C395.383,421.465,395.671,422.328,397.201,423.531z"/>
				<path style="fill-rule:evenodd;clip-rule:evenodd;fill:#01020E;" d="M399.619,423.266c16.266-1.883,27.789-5.18,35.17-7.957
					c-0.287-1.895-0.558-3.705-0.806-5.4c0,0-16.056,4.99-33.47,6.213C392.087,416.715,394.689,420.016,399.619,423.266z"/>
				<path style="fill-rule:evenodd;clip-rule:evenodd;fill:#FADCC2;" d="M420.06,229.181c0,0-32.002,31.517-32.608,57.37
					c0,0-0.039,2.654-1.591,2.789c0,0,0-8.443,0-12.982c0-4.541-0.493-22.633,7.836-34.608c8.329-11.976,7.637-21.465,1.773-23.352
					l5.874-2.842L420.06,229.181z"/>
				<path style="fill-rule:evenodd;clip-rule:evenodd;fill:#E8B79C;" d="M392.504,267.334c-2.921,6.387-4.905,12.967-5.052,19.217
					c0,0-0.039,2.654-1.591,2.789c0,0,0-8.443,0-12.982c0-4.541-0.493-22.633,7.836-34.608c8.329-11.976,7.637-21.465,1.773-23.352
					l5.874-2.842l4.587,3.34c1.351,3.808,0.603,9.646-6.296,19.976C393.146,248.593,390.162,259.408,392.504,267.334z"/>
				<path style="fill-rule:evenodd;clip-rule:evenodd;fill:#FFFFFF;" d="M351.862,424.375c-23.277-1.324-38.936-5.602-48.145-9.066
					c0.287-1.895,0.557-3.705,0.805-5.4c0,0-6.272-6.406-7.047-9.092c-0.777-2.688,2.505-65.24,2.505-65.24l-0.186-7.977
					c-0.307-3.936-0.616-8.023-0.924-12.27l-1.026-15.625c0-35.871,6.455-64.297,6.455-64.297l-0.009-0.015l26.592-11.668
					c6.418,11.034,19.132,35.223,19.829,54.762l1.933,3.402v142.297L351.862,424.375z"/>
				<path style="fill-rule:evenodd;clip-rule:evenodd;fill:#FCEADD;" d="M341.306,423.531c-17.549-1.824-29.847-5.309-37.588-8.223
					c0.287-1.895,0.557-3.705,0.805-5.4c0,0-6.272-6.406-7.047-9.092c-0.777-2.688,2.505-65.24,2.505-65.24l-0.186-7.977
					l-0.043-0.541C311.3,295.768,316.422,266,316.422,266s0.415-1.932,1.415,1.334c0.999,3.266,2.116,88.082,4.297,111.598
					c2.18,23.51,8.781,39.043,19.646,42.148C343.124,421.465,342.835,422.328,341.306,423.531z"/>
				<path style="fill-rule:evenodd;clip-rule:evenodd;fill:#FADCC2;" d="M318.445,229.181c0,0,32.003,31.517,32.609,57.37
					c0,0,0.039,2.654,1.59,2.789c0,0,0-8.443,0-12.982c0-4.541,0.493-22.633-7.836-34.608c-8.329-11.976-7.637-21.465-1.774-23.352
					l-5.873-2.842L318.445,229.181z"/>
				<path style="fill-rule:evenodd;clip-rule:evenodd;fill:#E8B79C;" d="M346.889,269.346c2.43,5.748,4.034,11.609,4.165,17.205
					c0,0,0.039,2.654,1.59,2.789c0,0,0-8.443,0-12.982c0-4.541,0.493-22.633-7.836-34.608c-8.329-11.976-7.637-21.465-1.774-23.352
					l-5.873-2.842l-2.019,1.471c-4.564,7.199,1.325,15.817,5.351,21.845C347.555,249.444,350.464,261.309,346.889,269.346z"/>
				<path style="fill-rule:evenodd;clip-rule:evenodd;fill:#01020E;" d="M338.888,423.266c-16.267-1.883-27.79-5.18-35.17-7.957
					c0.287-1.895,0.557-3.705,0.805-5.4c0,0,16.054,4.99,33.471,6.213C346.42,416.715,343.818,420.016,338.888,423.266z"/>
				<path style="fill-rule:evenodd;clip-rule:evenodd;fill:#FCEADD;" d="M423.949,289.764c0,0,9.379,36.438,25.24,61.684
					c4.92,7.832,11.645,13.99,17.775,12.725c46.103-9.512-13.618-122.714-36.637-131.621
					C430.328,232.551,410.24,234.366,423.949,289.764z"/>
				<path style="fill-rule:evenodd;clip-rule:evenodd;fill:#76533E;" d="M425.578,295.566c0.741,2.516,1.729,5.736,2.95,9.436
					c13.414-10.842,27.105-19.781,37.417-25.998c-1.408-2.779-2.86-5.51-4.341-8.17
					C451.688,276.805,438.642,285.279,425.578,295.566L425.578,295.566z M431.589,313.838c13.881-11.127,27.913-20.24,38.366-26.516
					c1.297,2.83,2.536,5.688,3.703,8.551c-10.654,6.436-24.846,15.738-38.606,27.02
					C433.798,319.779,432.643,316.738,431.589,313.838z"/>
				<g>
					<path style="fill-rule:evenodd;clip-rule:evenodd;fill:#E8685B;" d="M333.826,157.652c-0.277,0.019-0.551,0.047-0.822,0.086
						l-0.009,0.002v-0.002c-5.02,0.716-9.066,4.815-9.51,10.085c-0.515,6.124,4.034,11.507,10.157,12.022
						c6.124,0.515,11.508-4.032,12.023-10.154c0.299-3.561-1.111-6.867-3.547-9.116c0.069,3.295-0.716,7.321-4.925,7.454
						l0.537-6.394C337.947,159.045,335.609,157.696,333.826,157.652z"/>
					<path style="fill-rule:evenodd;clip-rule:evenodd;fill:#E8685B;" d="M413.973,162.868c0.271,0.056,0.54,0.119,0.805,0.193
						l0.007,0.003v-0.002c4.887,1.359,8.364,5.95,8.121,11.232c-0.283,6.139-5.49,10.887-11.628,10.605
						c-6.139-0.284-10.887-5.489-10.604-11.628c0.163-3.568,1.99-6.664,4.696-8.579c-0.494,3.26-0.237,7.352,3.919,8.03l0.296-6.409
						C409.704,163.715,412.199,162.682,413.973,162.868z"/>
				</g>
				<path style="fill-rule:evenodd;clip-rule:evenodd;fill:#F4AD85;" d="M377.513,104.791L377.513,104.791
					c-20.912-1.361-39.135,14.634-40.497,35.545l-2.251,34.579c-1.361,20.911,14.637,39.132,35.548,40.493l0,0
					c20.906,1.361,39.129-14.633,40.49-35.544l2.251-34.579C414.414,124.375,398.418,106.152,377.513,104.791z"/>
				<path style="fill-rule:evenodd;clip-rule:evenodd;fill:#EF8871;" d="M377.513,104.791L377.513,104.791
					c-20.912-1.361-39.135,14.634-40.497,35.543l-0.497,7.639l6.29,2.966l0.245,1.878c0,0,3.429-4.164,9.389-4.491
					c5.96-0.326,30.778-1.388,36.738-1.143c5.961,0.247,8.247,1.796,10.371,6.941c2.122,5.143,3.755,7.674,3.427,11.919
					c-0.325,4.247,0.409,7.02,1.88,8.572c0,0-0.62,44.951-41.563,39.669c2.261,0.584,4.606,0.968,7.017,1.124l0,0
					c20.906,1.361,39.129-14.633,40.49-35.544l2.251-34.579C414.414,124.375,398.418,106.152,377.513,104.791z"/>
				<g>
					<g>
						<path style="fill-rule:evenodd;clip-rule:evenodd;fill:#FFFFFF;" d="M362.19,186.035c-0.567,5.415,3.363,10.266,8.778,10.831
							c5.417,0.569,10.268-3.362,10.833-8.778l-0.015-0.002c0.096-0.931-0.585-1.773-1.517-1.871l-16.192-1.695
							c-0.932-0.098-1.775,0.584-1.871,1.516L362.19,186.035z"/>
						<path style="fill-rule:evenodd;clip-rule:evenodd;fill:#FFFFFF;" d="M365.043,194.051c1.54,1.533,3.596,2.572,5.924,2.815
							c1.903,0.201,3.737-0.155,5.339-0.936c-0.542-2.092-2.585-3.829-5.227-4.204C368.559,191.365,366.215,192.348,365.043,194.051
							z"/>
						<path style="fill-rule:evenodd;clip-rule:evenodd;fill:#FFFFFF;" d="M380.484,186.256l-15.218-1.594
							c-0.419,1.656,0.182,3.438,1.275,3.927c1.331,0.594,12.374,1.46,13.244,0.675
							C380.205,188.885,380.397,187.541,380.484,186.256z"/>
					</g>
					<g>
						<path style="fill-rule:evenodd;clip-rule:evenodd;fill:#E8685B;" d="M394.088,179.617c-2.759-0.232-5.182,1.817-5.415,4.572
							c-0.231,2.759,1.815,5.182,4.574,5.415c2.755,0.231,5.18-1.816,5.413-4.574C398.892,182.275,396.843,179.85,394.088,179.617z"
							/>
						<path style="fill-rule:evenodd;clip-rule:evenodd;fill:#E8685B;" d="M351.136,176.002c-2.755-0.231-5.18,1.815-5.413,4.57
							c-0.232,2.759,1.817,5.182,4.574,5.415c2.756,0.231,5.18-1.815,5.413-4.572C355.941,178.658,353.893,176.233,351.136,176.002z
							"/>
					</g>
					<path style="fill-rule:evenodd;clip-rule:evenodd;fill:#01020E;" d="M350.19,158.147c-0.687,0.289-1.48-0.034-1.769-0.723
						c-0.29-0.686,0.032-1.48,0.717-1.77c3.698-1.61,8.496-1.514,11.868,0.821c0.611,0.422,0.767,1.27,0.344,1.881
						c-0.422,0.611-1.271,0.768-1.882,0.344C356.74,156.811,353.157,156.958,350.19,158.147z"/>
					<path style="fill-rule:evenodd;clip-rule:evenodd;fill:#01020E;" d="M398.73,161.308c-2.792-1.565-6.324-2.174-9.277-0.655
						c-0.66,0.341-1.481,0.076-1.822-0.586c-0.338-0.66-0.074-1.481,0.586-1.82c3.648-1.879,8.417-1.353,11.871,0.725
						c0.646,0.374,0.861,1.206,0.486,1.849C400.198,161.463,399.369,161.681,398.73,161.308z"/>
					<g>
						<path style="fill-rule:evenodd;clip-rule:evenodd;fill:#01020E;" d="M394.301,165.585h0.001
							c1.806,0.117,3.186,1.69,3.068,3.495l-0.279,4.282c-0.116,1.805-1.689,3.186-3.494,3.068h-0.002
							c-1.805-0.116-3.186-1.69-3.068-3.495l0.279-4.282C390.924,166.848,392.495,165.466,394.301,165.585z"/>
						<path style="fill-rule:evenodd;clip-rule:evenodd;fill:#01020E;" d="M354.023,162.962h-0.002
							c-1.805-0.118-3.376,1.263-3.495,3.07l-0.279,4.28c-0.117,1.805,1.263,3.379,3.068,3.497h0.002
							c1.805,0.116,3.378-1.263,3.495-3.07l0.279-4.282C357.209,164.653,355.828,163.081,354.023,162.962z"/>
					</g>
				</g>
				<path style="fill-rule:evenodd;clip-rule:evenodd;fill:#0F1630;" d="M360.188,131.595c-4.093-0.267-12.135,1.159-12.667,9.334
					c-0.532,8.175-2.504,14.558-7.719,14.218c0,0-0.184,2.828-0.417,6.413c-0.233,3.584-0.819,7.189-4.203,6.968
					c0.502-7.712-1.651-10.897-1.651-10.897s0.67-10.318,1.258-19.337c0.588-9.021,3.912-20.979,16.293-28.522
					c16.022-9.764,37.372-8.375,51.992,3.383c11.299,9.087,13.047,21.372,12.459,30.394c-0.588,9.021-1.258,19.339-1.258,19.339
					s-2.548,2.878-3.051,10.591c-3.384-0.221-3.497-3.87-3.264-7.456c0.232-3.585,0.417-6.413,0.417-6.413
					c-5.216-0.339-6.344-6.923-5.812-15.098c0.531-8.175-7.256-10.63-11.35-10.897C380.872,132.942,370.531,132.269,360.188,131.595
					z"/>
				<path style="fill-rule:evenodd;clip-rule:evenodd;fill:#000618;" d="M407.041,116.88c4.403,4.846,9.596,10.745,10.107,12.356
					c0.653,2.058-0.703,6.582-1.561,9.315c-2.891,9.024-7.211,21.058-7.211,21.058c-5.216-0.339-6.344-6.923-5.812-15.098
					c0.395-6.063-3.787-8.979-7.643-10.189l0.396-16.557L407.041,116.88z"/>
				<path style="fill-rule:evenodd;clip-rule:evenodd;fill:#000618;" d="M346.665,112.951c-4.994,4.235-10.907,9.41-11.625,10.941
					c-0.914,1.956-0.155,6.617,0.341,9.438c1.695,9.324,4.42,21.816,4.42,21.816c5.215,0.339,7.188-6.043,7.719-14.218
					c0.395-6.061,4.918-8.412,8.9-9.114l1.753-16.465L346.665,112.951z"/>
				<path style="fill-rule:evenodd;clip-rule:evenodd;fill:#FFFFFF;" d="M457.054,314.379c0,0,8.669-2.195,10.096-1.428
					c1.425,0.77,10.093,13.717,11.739,17.887c1.646,4.17,2.744,22.494,0.329,26.666c-2.414,4.168-10.205,10.092-16.678,9.215
					c-6.476-0.877-17.668-3.4-19.644-5.156c-1.974-1.756-3.598-9.441-2.457-15.805C441.581,339.397,457.054,314.379,457.054,314.379
					z"/>
				<path style="fill-rule:evenodd;clip-rule:evenodd;fill:#F4AD85;" d="M429.615,282.227l-6.536,7.123
					c0,0,19.885,60.891,21.86,64.439c1.976,3.549,11.298,7.51,16.67,3.066c5.371-4.441,8.911-15.563,8.932-21.529
					c0.019-5.967-10.099-19.457-19.871-41.016C440.897,272.75,429.615,282.227,429.615,282.227z"/>
				<path style="fill-rule:evenodd;clip-rule:evenodd;fill:#EF8871;" d="M429.615,282.228l-6.536,7.121
					c0,0,19.885,60.891,21.86,64.439c1.976,3.549,11.299,7.51,16.67,3.066c3.099-2.561,5.587-7.348,7.143-12.084
					c-5.418,9.764-16.83,8.809-19.563,6.676c-2.732-2.135-10.942-39.096-10.33-41.137c0.613-2.043,6.838-7.961,9.491-7.961
					c2.654,0,9.347,6.242,9.347,6.242h0.002c-2.265-4.291-4.657-9.049-7.029-14.283C440.897,272.75,429.615,282.228,429.615,282.228
					z"/>
				<g>
					<path style="fill-rule:evenodd;clip-rule:evenodd;fill:#EF8871;" d="M409.079,263.717l-2.993,1.625
						c0,0,0.205,1.604,0.935,3.965c0.729,2.359,0.88,4.939,1.464,10.283c0.583,5.344,0.549,8.283,5.506,13.605
						c4.961,5.324,15.561,12.291,17.663,12.74c2.103,0.449,6.886,0.264,11.963-4.322c5.078-4.586,13.588-12.777,17.898-16.805
						c4.311-4.023,6.151-6.695,6.151-6.695l-6.495-5.596c0,0-2.427,1.516-3.543,0.982c-1.114-0.533,0.97-3.26,0.97-3.26
						l-0.646-13.732c0,0-0.604,0.295-0.773-0.23c-0.17-0.529,3.529-5.321,3.824-6.543L409.079,263.717z"/>
					<path style="fill-rule:evenodd;clip-rule:evenodd;fill:#F4AD85;" d="M443.299,231.102c0,0,3.64-2.602,4.969-2.394
						c1.329,0.208,5.776,3.065,5.746,5.241c-0.032,2.177-1.415,10.257-6.386,12.25C442.655,248.191,443.299,231.102,443.299,231.102
						z"/>
					<g>
						<path style="fill-rule:evenodd;clip-rule:evenodd;fill:#5D6378;" d="M407.272,232.995L407.272,232.995
							c-0.315,0.034-0.547,0.322-0.512,0.638l1.311,11.971c0.033,0.316,0.32,0.547,0.637,0.512h0.001
							c0.316-0.035,0.548-0.322,0.512-0.638l-1.31-11.971C407.875,233.191,407.588,232.961,407.272,232.995z"/>
						<path style="fill-rule:evenodd;clip-rule:evenodd;fill:#5D6378;" d="M408.852,247.421L408.852,247.421
							c-0.316,0.036-0.548,0.323-0.512,0.638l0.52,4.757c0.036,0.316,0.322,0.547,0.639,0.514l0,0
							c0.317-0.035,0.547-0.322,0.513-0.639l-0.521-4.757C409.456,247.617,409.169,247.387,408.852,247.421z"/>
						<path style="fill-rule:evenodd;clip-rule:evenodd;fill:#5D6378;" d="M409.611,254.361L409.611,254.361
							c-0.316,0.033-0.548,0.32-0.512,0.637l0.52,4.758c0.036,0.316,0.322,0.547,0.639,0.512l0,0
							c0.317-0.035,0.547-0.322,0.513-0.637l-0.522-4.76C410.216,254.557,409.929,254.324,409.611,254.361z"/>
						<path style="fill-rule:evenodd;clip-rule:evenodd;fill:#01020E;" d="M411.477,223.31l32.185-3.523
							c2.86-0.313,5.459,1.771,5.771,4.633l7.508,68.588c0.314,2.863-1.771,5.459-4.633,5.771l-32.185,3.525
							c-2.86,0.313-5.457-1.773-5.771-4.633l-7.508-68.591C406.531,226.221,408.615,223.623,411.477,223.31z"/>
						<path style="fill-rule:evenodd;clip-rule:evenodd;fill:#C6E3F1;" d="M411.277,229.426l33.902-3.711
							c1.251-0.137,2.387,0.777,2.523,2.028l6.466,59.064c0.137,1.252-0.775,2.387-2.026,2.523l-33.9,3.713
							c-1.251,0.137-2.388-0.773-2.524-2.027l-6.467-59.064C409.114,230.699,410.026,229.564,411.277,229.426z"/>
						<path style="fill-rule:evenodd;clip-rule:evenodd;fill:#FFFFFF;" d="M429.673,240.767c1.091-0.12,2.159-0.063,3.18,0.146
							c-0.442,0.878-0.643,1.888-0.53,2.934c0.317,2.893,2.922,4.98,5.821,4.662c0.866-0.094,1.658-0.393,2.339-0.842
							c0.225,0.679,0.383,1.388,0.464,2.126c0.613,5.602-3.44,10.637-9.053,11.252c-5.614,0.615-10.663-3.428-11.275-9.027
							C420.005,246.42,424.06,241.381,429.673,240.767z"/>
						<path style="fill-rule:evenodd;clip-rule:evenodd;fill:#0F1630;" d="M428.447,295.027l14.159-1.549
							c0.848-0.094,1.617,0.524,1.71,1.371l0,0c0.093,0.848-0.525,1.617-1.372,1.709l-14.159,1.551
							c-0.848,0.092-1.616-0.525-1.709-1.373l0,0C426.983,295.889,427.602,295.121,428.447,295.027z"/>
						<path style="fill-rule:evenodd;clip-rule:evenodd;fill:#0F1630;" d="M423.52,224.751l8.691-0.951
							c0.521-0.057,0.993,0.321,1.051,0.841l0,0c0.058,0.52-0.323,0.993-0.843,1.05l-8.692,0.951
							c-0.519,0.057-0.991-0.323-1.048-0.843l0,0C422.622,225.279,423,224.806,423.52,224.751z"/>
						<g>
							<path style="fill-rule:evenodd;clip-rule:evenodd;fill:#FFFFFF;" d="M427.334,267.387l14.769-1.615
								c0.883-0.1,1.685,0.547,1.781,1.43l0,0c0.098,0.885-0.546,1.685-1.431,1.783l-14.769,1.615
								c-0.883,0.098-1.684-0.547-1.781-1.43l0,0C425.807,268.287,426.451,267.482,427.334,267.387z"/>
							<path style="fill-rule:evenodd;clip-rule:evenodd;fill:#FFFFFF;" d="M422.762,267.887L422.762,267.887
								c0.784-0.084,1.493,0.484,1.579,1.266l0.04,0.371c0.085,0.783-0.484,1.492-1.266,1.578l0,0
								c-0.782,0.086-1.493-0.484-1.579-1.268l-0.04-0.369C421.411,268.684,421.98,267.973,422.762,267.887z"/>
						</g>
					</g>
					<path style="fill-rule:evenodd;clip-rule:evenodd;fill:#F4AD85;" d="M409.765,259.236c0,0,6.026-0.203,7.372,0.283
						c1.346,0.484,2.316,2.654,2.06,7.047s-3.766,4.717-6.838,4.629c-3.071-0.088-6.022-3.857-6.272-5.854
						C405.832,263.344,407.303,259.184,409.765,259.236z"/>
					<path style="fill-rule:evenodd;clip-rule:evenodd;fill:#F4AD85;" d="M453.639,242.727c0,0-4.136,2.742-4.903,4.269
						c-0.771,1.526-0.456,3.63,0.567,5.266c1.021,1.637,3.042,2.666,4.793,2.584c1.751-0.08,5.285-2.418,6.072-3.666
						c0.786-1.248,1.796-2.582,0.531-4.611C459.436,244.54,455.819,241.23,453.639,242.727z"/>
					<path style="fill-rule:evenodd;clip-rule:evenodd;fill:#F4AD85;" d="M448.938,264.754c0,0,8.273-7.861,9.487-8.594
						c1.214-0.734,3.439-0.471,4.391,1.02c0.95,1.492,2.491,3.502,1.23,6.336c-1.263,2.832-7.534,9.031-8.949,9.766
						c-1.414,0.736-4.457,0.4-5.569-0.897C448.416,271.088,446.706,266.984,448.938,264.754z"/>
					<path style="fill-rule:evenodd;clip-rule:evenodd;fill:#F4AD85;" d="M452.49,278.563c0,0,9.756-6.84,10.687-7.397
						c0.93-0.553,3.044-0.428,4.205,1.301c1.162,1.729,1.663,4.156,0.284,5.647c-1.378,1.49-9.768,7.166-11.271,7.477
						c-1.503,0.311-3.071-1.055-3.706-2.57C452.055,281.504,451.518,279.486,452.49,278.563z"/>
				</g>
				<path style="fill-rule:evenodd;clip-rule:evenodd;fill:#FFFFFF;" d="M312.896,293.617c-6.57,31.059-17.08,39.006-23.724,64.264
					c-1.02,3.877,15.979,59.926,15.979,59.926l-26.739,1.225l-4.694-0.816c0,0-14.549-46.455-15.979-54.824
					c-1.428-8.367-1.067-17.572,1.832-25.922h0.001c0.112-0.346,0.227-0.693,0.353-1.043c6.262-17.445,12.695-38.879,19.157-60.92
					c4.485-15.287,11.456-33.554,25.21-40.113C304.291,235.393,324.434,236.481,312.896,293.617z"/>
				<path style="fill-rule:evenodd;clip-rule:evenodd;fill:#FCEADD;" d="M312.896,293.617c-6.57,31.059-17.08,39.006-23.724,64.264
					c-0.912,3.463,12.55,48.541,15.437,58.135l-5.661-0.625c0,0-17.961-53.951-19.797-55.48c-1.837-1.531-3.674-1.123-2.041-2.756
					c1.632-1.633,37.047-86.133,37.812-89.246c0.481-1.959,1.113-2.432,1.515-2.514C316.264,272.816,315.227,282.07,312.896,293.617
					z"/>
				<path style="fill-rule:evenodd;clip-rule:evenodd;fill:#01020E;" d="M346.524,101.467c2.119-4.501,8.051-14.659,19.125-16.609
					c14.313-2.522,16.415,6.496,16.415,6.496s5.867-5.374,10.129-3.453c4.262,1.922,5.112,8.39,5.112,8.39s6.662-2.36,9.138,0.925
					c1.631,2.165,2.337,7.196,2.629,10.377c8.633-14.406,21.756,17.188,4.009,24.543c-6.173,26.748-19.838,14.922-13.94,7.014
					c-22.711-2.772-40.464,14.613-59.299,3.091C318.276,129.049,325.493,89.498,346.524,101.467z"/>
				<path style="fill-rule:evenodd;clip-rule:evenodd;fill:#0F1630;" d="M416.523,104.719c1.096,0.739,2.102,1.926,2.938,3.412
					c-11.351,16.795-37.885,30.471-63.019,27.375c-15.802-1.945-24.703-10.847-29.633-19.091c0.286-8.954,4.48-16.568,11.477-17.136
					c5.287,11.502,15.105,22.422,33.343,23.328C396.889,123.858,410.203,112.835,416.523,104.719z"/>
				<path style="fill-rule:evenodd;clip-rule:evenodd;fill:#F8CAB0;" d="M373.681,178.106c0,0-0.226,3.558-1.206,4.091
					c-0.976,0.533-3.751,0.186-2.789-1.68c0.962-1.867,2.548-2.913,3.08-3.075C373.3,177.282,373.792,177.608,373.681,178.106z"/>
				<path style="fill-rule:evenodd;clip-rule:evenodd;fill:#01020E;" d="M412.934,132.438c-0.405,0.123-0.836-0.103-0.961-0.51
					c-0.123-0.407,0.104-0.836,0.511-0.961c0.035-0.012,12.612-3.691,10.887-19.383c-0.046-0.422,0.262-0.802,0.684-0.848
					c0.422-0.043,0.802,0.262,0.848,0.686C426.767,128.387,412.975,132.426,412.934,132.438z"/>
				<path style="fill-rule:evenodd;clip-rule:evenodd;fill:#01020E;" d="M341.345,141.033c0.407,0.125,0.635,0.556,0.51,0.962
					c-0.125,0.405-0.556,0.633-0.962,0.508c-0.054-0.017-19.146-5.607-16.558-29.134c0.044-0.422,0.424-0.729,0.846-0.686
					c0.422,0.045,0.729,0.425,0.684,0.848C323.416,135.786,341.294,141.018,341.345,141.033z"/>
				<path style="fill-rule:evenodd;clip-rule:evenodd;fill:#DAA38A;" d="M318.974,289.619h24.903c0.785,0,1.429,0.645,1.429,1.43
					v1.633c0,0.785-0.644,1.428-1.429,1.428h-24.903c-0.785,0-1.428-0.643-1.428-1.428v-1.633
					C317.545,290.264,318.189,289.619,318.974,289.619z"/>
				<path style="fill-rule:evenodd;clip-rule:evenodd;fill:#8F7260;" d="M304.382,310.467c-9.717-8.404-19.905-15.855-29.117-22.027
					c0.912-3.067,1.823-6.154,2.737-9.26c8.916,5.883,18.885,13.008,28.604,21.094C306.063,302.848,305.252,306.543,304.382,310.467
					L304.382,310.467z M299.935,330.287c0,0,1.025-4.52,2.308-10.244c-9.943-8.582-20.322-16.182-29.711-22.486
					c-0.942,3.117-1.884,6.197-2.823,9.229C279.409,313.4,290.019,321.353,299.935,330.287z"/>
				<path style="fill-rule:evenodd;clip-rule:evenodd;fill:#76533E;" d="M304.382,310.467c-1.697-1.467-3.409-2.906-5.126-4.314
					c1.263-3.01,2.507-5.982,3.706-8.857c1.217,0.979,2.431,1.971,3.644,2.979C306.063,302.848,305.252,306.543,304.382,310.467
					L304.382,310.467z M299.935,330.287c-2.617-2.359-5.283-4.648-7.968-6.861c1.231-2.898,2.485-5.863,3.742-8.84
					c2.188,1.77,4.373,3.59,6.534,5.457C300.96,325.768,299.935,330.287,299.935,330.287z"/>
			</g>
		</g>
		<path style="fill-rule:evenodd;clip-rule:evenodd;fill:#01020E;" d="M667.967,408.957H82.032c-6.643,0-12.083,5.441-12.083,12.084
			l0,0c0,6.645,5.437,12.084,12.083,12.084h40.769c3.692,0,6.713,3.022,6.713,6.715l0,0c0,3.689-3.021,6.713-6.713,6.713h-14.915
			c-4.615,0-8.392,3.777-8.392,8.389l0,0c0,4.615,3.775,8.393,8.392,8.393h532.894c4.615,0,8.389-3.775,8.389-8.393l0,0
			c0-4.613-3.774-8.389-8.389-8.389h-11.748c-3.693,0-6.713-3.021-6.713-6.713l0,0c0-3.693,3.02-6.715,6.713-6.715h38.935
			c6.644,0,12.084-5.438,12.084-12.084l0,0C680.051,414.397,674.607,408.957,667.967,408.957L667.967,408.957z M661.674,463.334
			c-4.432,0-8.057-3.625-8.057-8.055v-0.672c0-4.43,3.625-8.055,8.057-8.055l0,0c4.43,0,8.055,3.625,8.055,8.055v0.672
			C669.729,459.711,666.104,463.334,661.674,463.334L661.674,463.334z"/>
	</g>
</g>
<g id="DESIGNED_BY_FREEPIK">
	<path style="fill:#1C262D;" d="M384.396,475.844c-0.941,0.966-1.562,2.167-1.791,3.473l-0.748-0.132
		c0.107-0.604,0.289-1.19,0.539-1.743l-0.451-0.234c-0.057,0.026-0.117,0.045-0.184,0.052c-0.33,0.039-0.631-0.197-0.67-0.528
		c-0.037-0.331,0.199-0.631,0.529-0.67c0.31-0.036,0.592,0.169,0.66,0.466l0.465,0.241c0.305-0.522,0.676-1.01,1.107-1.453
		L384.396,475.844z M386.346,474.444c0.936-0.447,1.941-0.674,2.996-0.674c0.496,0,0.992,0.053,1.475,0.158l0.16-0.741
		c-0.535-0.116-1.084-0.175-1.635-0.175c-0.172,0-0.342,0.006-0.51,0.017l-0.074-0.626c0.188-0.149,0.297-0.389,0.266-0.645
		c-0.045-0.393-0.402-0.674-0.795-0.628c-0.393,0.046-0.674,0.402-0.627,0.796c0.029,0.254,0.189,0.461,0.404,0.563l0.072,0.624
		c-0.713,0.116-1.402,0.332-2.059,0.646L386.346,474.444z M395.797,474.362c-0.309,0.038-0.535,0.304-0.529,0.608l-0.416,0.363
		c-0.418-0.43-0.891-0.813-1.408-1.14l-0.404,0.642c1.135,0.715,2.021,1.727,2.564,2.925l0.69-0.313
		c-0.25-0.554-0.566-1.071-0.941-1.545l0.402-0.351c0.061,0.012,0.125,0.016,0.189,0.007c0.332-0.04,0.566-0.341,0.525-0.672
		C396.43,474.557,396.129,474.321,395.797,474.362z M388.795,483.221c-0.387,0.023-0.775,0.035-1.158,0.035
		c-0.879,0-1.732-0.061-2.478-0.18c-0.391-0.062-0.846-0.154-1.27-0.292c1.047,1.861,3.068,3.125,5.389,3.125
		c2.855,0,5.262-1.916,5.949-4.503c-0.682,0.449-1.506,0.825-2.459,1.122C391.588,482.897,390.213,483.136,388.795,483.221z
		 M395.373,479.725c0.025,0.191,0.041,0.387,0.045,0.581c-1.375,1.201-3.791,1.985-6.672,2.159
		c-2.641,0.159-4.674-0.248-5.348-0.731c-0.09-0.412-0.137-0.836-0.137-1.261c0-3.277,2.729-5.943,6.08-5.943
		C392.4,474.529,394.994,476.763,395.373,479.725z M389.031,479.194c0-1.021-0.83-1.85-1.85-1.85c-1.02,0-1.85,0.83-1.85,1.85
		c0,1.02,0.83,1.85,1.85,1.85C388.201,481.044,389.031,480.214,389.031,479.194z M393.279,478.775c0-0.75-0.609-1.36-1.359-1.36
		s-1.361,0.61-1.361,1.36s0.611,1.36,1.361,1.36S393.279,479.525,393.279,478.775z M403.119,477.165
		c0-0.666,0.293-0.938,0.844-1.007c0.576-0.071,1.088,0.122,1.383,0.238v-1.729c-0.434-0.187-0.947-0.308-1.59-0.308
		c-1.674,0-2.568,1.102-2.568,2.782v0.889h-1.34v1.717h1.34v5.455h1.932v-5.455h2.229v-1.717h-2.229V477.165z M409.973,477.839
		c-0.881,0-1.568,0.304-2.02,0.977v-0.784h-1.873v7.172h1.932v-3.908c0-1.065,0.615-1.613,1.51-1.613
		c0.168,0,0.35,0.017,0.525,0.046l1.021-1.552C410.82,477.967,410.387,477.839,409.973,477.839z M417.715,481.606
		c0,0.222-0.016,0.488-0.037,0.651h-5.084c0.207,1.036,0.932,1.487,1.842,1.487c0.623,0,1.295-0.252,1.815-0.688l1.133,1.243
		c-0.814,0.748-1.852,1.089-3.057,1.089c-2.199,0-3.725-1.496-3.725-3.753c0-2.258,1.48-3.797,3.627-3.797
		C416.293,477.839,417.707,479.371,417.715,481.606z M415.775,480.94c-0.178-0.918-0.732-1.436-1.561-1.436
		c-0.91,0-1.443,0.548-1.613,1.436H415.775z M425.369,481.606c0,0.222-0.016,0.488-0.037,0.651h-5.086
		c0.207,1.036,0.934,1.487,1.844,1.487c0.621,0,1.295-0.252,1.813-0.688l1.133,1.243c-0.814,0.748-1.85,1.089-3.057,1.089
		c-2.199,0-3.723-1.496-3.723-3.753c0-2.258,1.48-3.797,3.627-3.797C423.947,477.839,425.361,479.371,425.369,481.606z
		 M423.43,480.94c-0.178-0.918-0.734-1.436-1.563-1.436c-0.91,0-1.443,0.548-1.613,1.436H423.43z M433.715,481.613
		c0,2.154-1.496,3.775-3.473,3.775c-0.961,0-1.643-0.378-2.109-0.933v3.708h-1.924v-10.133h1.887v0.792
		c0.467-0.585,1.154-0.984,2.139-0.984C432.219,477.839,433.715,479.46,433.715,481.613z M431.73,481.613
		c0-1.095-0.711-1.976-1.85-1.976c-1.096,0-1.844,0.844-1.844,1.976c0,1.133,0.748,1.977,1.844,1.977
		C431.02,483.59,431.73,482.709,431.73,481.613z M435.582,474.441c-0.697,0-1.229,0.548-1.229,1.243
		c0,0.696,0.531,1.229,1.229,1.229c0.695,0,1.236-0.533,1.236-1.229C436.818,474.989,436.277,474.441,435.582,474.441z
		 M434.627,485.203h1.932v-7.172h-1.932V485.203z M441.373,481.406l3.479-3.375h-2.367l-2.703,2.554v-6.04h-1.932v10.658h1.932
		v-2.901l2.717,2.901h2.377L441.373,481.406z M308.162,475.368h1.099v9.771h-1.099v-1.055c-0.527,0.718-1.392,1.23-2.388,1.23
		c-1.846,0-3.149-1.406-3.149-3.706c0-2.256,1.289-3.721,3.149-3.721c0.952,0,1.816,0.469,2.388,1.245V475.368z M308.162,480.012
		c-0.396-0.615-1.245-1.143-2.124-1.143c-1.421,0-2.27,1.172-2.27,2.739s0.85,2.725,2.27,2.725c0.879,0,1.729-0.498,2.124-1.113
		V480.012z M317.565,481.682v0.278h-5.727c0.088,1.333,1.025,2.446,2.549,2.446c0.806,0,1.626-0.322,2.182-0.894l0.527,0.718
		c-0.703,0.703-1.654,1.084-2.812,1.084c-2.095,0-3.604-1.509-3.604-3.721c0-2.051,1.465-3.706,3.486-3.706
		C316.307,477.888,317.565,479.558,317.565,481.682z M316.482,481.154c-0.015-1.055-0.718-2.358-2.329-2.358
		c-1.509,0-2.256,1.274-2.314,2.358H316.482z M319.616,479.895c0-0.63,0.601-1.113,1.567-1.113c0.908,0,1.685,0.381,2.109,0.893
		l0.513-0.762c-0.571-0.571-1.421-1.025-2.622-1.025c-1.685,0-2.637,0.938-2.637,2.036c0,2.622,4.38,1.567,4.38,3.281
		c0,0.703-0.586,1.216-1.67,1.216c-0.967,0-1.86-0.469-2.329-1.011l-0.571,0.791c0.718,0.762,1.699,1.113,2.857,1.113
		c1.831,0,2.783-0.952,2.783-2.139C323.996,480.422,319.616,481.447,319.616,479.895z M325.959,475.573
		c-0.396,0-0.732,0.337-0.732,0.747c0,0.41,0.337,0.732,0.732,0.732c0.41,0,0.747-0.322,0.747-0.732
		C326.706,475.91,326.369,475.573,325.959,475.573z M325.417,485.139h1.099v-7.075h-1.099V485.139z M333.458,478.064h1.099v6.87
		c0,2.344-1.641,3.076-3.369,3.076c-1.201,0-2.022-0.235-2.855-1.055l0.556-0.82c0.586,0.703,1.289,0.967,2.3,0.967
		c1.172,0,2.271-0.571,2.271-2.124v-1.011c-0.513,0.718-1.377,1.26-2.373,1.26c-1.846,0-3.15-1.377-3.15-3.662
		c0-2.271,1.289-3.677,3.15-3.677c0.952,0,1.802,0.469,2.373,1.245V478.064z M333.458,480.012c-0.381-0.615-1.23-1.143-2.109-1.143
		c-1.421,0-2.27,1.128-2.27,2.695c0,1.553,0.849,2.695,2.27,2.695c0.879,0,1.728-0.542,2.109-1.157V480.012z M340.006,477.888
		c-1.055,0-2.021,0.615-2.52,1.201v-1.025h-1.099v7.075h1.099v-5.171c0.41-0.571,1.23-1.099,2.095-1.099
		c0.952,0,1.582,0.395,1.582,1.641v4.629h1.099v-4.966C342.262,478.635,341.485,477.888,340.006,477.888z M350.566,481.682v0.278
		h-5.727c0.088,1.333,1.025,2.446,2.548,2.446c0.806,0,1.626-0.322,2.183-0.894l0.527,0.718c-0.703,0.703-1.655,1.084-2.813,1.084
		c-2.094,0-3.604-1.509-3.604-3.721c0-2.051,1.465-3.706,3.486-3.706C349.307,477.888,350.566,479.558,350.566,481.682z
		 M349.482,481.154c-0.015-1.055-0.718-2.358-2.329-2.358c-1.509,0-2.256,1.274-2.314,2.358H349.482z M357.1,475.368h1.099v9.771
		H357.1v-1.055c-0.527,0.718-1.392,1.23-2.388,1.23c-1.846,0-3.149-1.406-3.149-3.706c0-2.256,1.289-3.721,3.149-3.721
		c0.952,0,1.816,0.469,2.388,1.245V475.368z M357.1,480.012c-0.396-0.615-1.245-1.143-2.124-1.143c-1.421,0-2.27,1.172-2.27,2.739
		s0.85,2.725,2.27,2.725c0.879,0,1.729-0.498,2.124-1.113V480.012z M370.077,481.608c0,2.3-1.304,3.706-3.149,3.706
		c-0.996,0-1.86-0.513-2.388-1.23v1.055h-1.099v-9.771h1.099v3.765c0.571-0.776,1.421-1.245,2.388-1.245
		C368.773,477.888,370.077,479.353,370.077,481.608z M368.935,481.608c0-1.567-0.85-2.739-2.285-2.739
		c-0.864,0-1.728,0.527-2.109,1.143v3.208c0.381,0.615,1.245,1.113,2.109,1.113C368.085,484.333,368.935,483.176,368.935,481.608z
		 M373.988,483.864l-2.358-5.801h-1.186l2.959,7.148l-0.469,1.069c-0.249,0.586-0.571,0.747-1.055,0.747
		c-0.176,0-0.439-0.044-0.601-0.117l-0.176,0.995c0.205,0.059,0.571,0.103,0.806,0.103c0.938-0.015,1.655-0.411,2.08-1.436
		l3.545-8.511h-1.201L373.988,483.864z"/>
</g>
</svg>
